<?xml version="1.0" encoding="UTF-8" standalone="no"?>
<!-- Generator: Adobe Illustrator 19.0.0, SVG Export Plug-In . SVG Version: 6.00 Build 0)  -->

<svg
   version="1.1"
   id="Layer_1"
   x="0px"
   y="0px"
   viewBox="0 0 496.162 496.162"
   style="enable-background:new 0 0 496.162 496.162;"
   xml:space="preserve"
   sodipodi:docname="fire_hydrant.svg"
   inkscape:version="1.2.1 (9c6d41e410, 2022-07-14)"
   xmlns:inkscape="http://www.inkscape.org/namespaces/inkscape"
   xmlns:sodipodi="http://sodipodi.sourceforge.net/DTD/sodipodi-0.dtd"
   xmlns="http://www.w3.org/2000/svg"
   xmlns:svg="http://www.w3.org/2000/svg"><defs
   id="defs3670" /><sodipodi:namedview
   id="namedview3668"
   pagecolor="#ffffff"
   bordercolor="#666666"
   borderopacity="1.0"
   inkscape:showpageshadow="2"
   inkscape:pageopacity="0.0"
   inkscape:pagecheckerboard="0"
   inkscape:deskcolor="#d1d1d1"
   showgrid="false"
   inkscape:zoom="0.47565111"
   inkscape:cx="248.08099"
   inkscape:cy="248.08099"
   inkscape:window-width="1920"
   inkscape:window-height="1027"
   inkscape:window-x="-8"
   inkscape:window-y="-8"
   inkscape:window-maximized="1"
   inkscape:current-layer="Layer_1" />

<path
   style="fill:#EA4949;"
   d="M247.593,44.953c-15.329,0-29.587,11.97-29.587,23.525v44.68c0,11.556,9.368,20.923,20.923,20.923  h18.305c11.556,0,20.923-9.368,20.923-20.923v-44.68C278.157,56.922,262.921,44.953,247.593,44.953z"
   id="path3591" />
<path
   style="fill:#D63232;"
   d="M246.887,68.306c-37.498,0-72.379,31.826-72.379,62.55h147.146  C321.654,100.132,284.384,68.306,246.887,68.306z"
   id="path3593" />
<path
   style="fill:#EA4949;"
   d="M246.887,73.724c-37.498,0-72.379,29.282-72.379,57.55v270.807h147.146V131.274  C321.654,103.006,284.384,73.724,246.887,73.724z"
   id="path3595" />
<g
   id="g3605">
	<path
   style="fill:#E68484;"
   d="M196.695,155.081c-3.313,0-6,2.687-6,6v206c0,3.313,2.687,6,6,6s6-2.687,6-6v-206   C202.695,157.768,200.009,155.081,196.695,155.081z"
   id="path3597" />
	<path
   style="fill:#E68484;"
   d="M299.695,155.081c-3.313,0-6,2.687-6,6v206c0,3.313,2.687,6,6,6s6-2.687,6-6v-206   C305.695,157.768,303.009,155.081,299.695,155.081z"
   id="path3599" />
	<path
   style="fill:#E68484;"
   d="M228.695,155.081c-3.313,0-6,2.687-6,6v206c0,3.313,2.687,6,6,6s6-2.687,6-6v-206   C234.695,157.768,232.009,155.081,228.695,155.081z"
   id="path3601" />
	<path
   style="fill:#E68484;"
   d="M266.362,155.081c-3.313,0-6,2.687-6,6v206c0,3.313,2.687,6,6,6s6-2.687,6-6v-206   C272.362,157.768,269.675,155.081,266.362,155.081z"
   id="path3603" />
</g>
<g
   id="g3615">
	<path
   style="fill:#EA4949;"
   d="M366.415,213.324c-21.22,0-15.03,35.894-15.03,35.894s-5.689,39.255,15.03,39.255   c13.72,0,29.391-19.034,29.391-38.185S377.695,213.324,366.415,213.324z"
   id="path3607" />
	<path
   style="fill:#EA4949;"
   d="M364.014,226.823H247.195v48.151h116.818c11.141,0,22.682-12.196,22.682-24.466   S375.155,226.823,364.014,226.823z"
   id="path3609" />
	<path
   style="fill:#EA4949;"
   d="M127.587,213.324c-11.28,0-29.391,17.814-29.391,36.965s15.671,38.185,29.391,38.185   c20.72,0,15.03-39.255,15.03-39.255S148.807,213.324,127.587,213.324z"
   id="path3611" />
	<path
   style="fill:#EA4949;"
   d="M129.988,226.823c-11.141,0-22.682,11.415-22.682,23.685c0,12.27,11.541,24.466,22.682,24.466   h116.818v-48.151H129.988z"
   id="path3613" />
</g>
<circle
   style="fill:#D63232;"
   cx="247.191"
   cy="245.941"
   r="55.863"
   id="circle3617" />
<circle
   style="fill:#EA4949;"
   cx="247.191"
   cy="245.941"
   r="34.863"
   id="circle3619" />
<path
   style="fill:#D63232;"
   d="M322.695,129.081h-152c-2.761,0-5,2.239-5,5s2.239,5,5,5h152c2.761,0,5-2.239,5-5  S325.456,129.081,322.695,129.081z"
   id="path3621" />
<path
   style="fill:#EA4949;"
   d="M164.695,401.081v80.701c26.061,9.3,54.126,14.38,83.382,14.38c27.85,0,54.627-4.59,79.618-13.053  v-82.028H164.695z"
   id="path3623" />
<g
   id="g3633">
	<path
   style="fill:#E68484;"
   d="M185.04,426.385c-4.063,0-7.357,3.294-7.357,7.358v52.27c4.847,1.432,9.75,2.733,14.715,3.872   v-56.141C192.398,429.68,189.104,426.385,185.04,426.385z"
   id="path3625" />
	<path
   style="fill:#E68484;"
   d="M311.35,426.385c-4.063,0-7.358,3.294-7.358,7.358v56.09c4.966-1.144,9.868-2.453,14.715-3.89v-52.2   C318.707,429.68,315.413,426.385,311.35,426.385z"
   id="path3627" />
	<path
   style="fill:#E68484;"
   d="M224.282,426.385c-4.063,0-7.357,3.294-7.357,7.358v60.477c4.861,0.609,9.771,1.063,14.715,1.387   v-61.863C231.64,429.68,228.346,426.385,224.282,426.385z"
   id="path3629" />
	<path
   style="fill:#E68484;"
   d="M270.473,426.385c-4.063,0-7.358,3.294-7.358,7.358v61.952c4.945-0.296,9.852-0.734,14.715-1.316   v-60.636C277.831,429.68,274.536,426.385,270.473,426.385z"
   id="path3631" />
</g>
<path
   style="fill:#D63232;"
   d="M331.14,396.525H162.251c-3.068,0-5.556,2.488-5.556,5.556s2.487,5.556,5.556,5.556H331.14  c3.068,0,5.556-2.488,5.556-5.556S334.208,396.525,331.14,396.525z"
   id="path3635" />
<g
   id="g3637">
</g>
<g
   id="g3639">
</g>
<g
   id="g3641">
</g>
<g
   id="g3643">
</g>
<g
   id="g3645">
</g>
<g
   id="g3647">
</g>
<g
   id="g3649">
</g>
<g
   id="g3651">
</g>
<g
   id="g3653">
</g>
<g
   id="g3655">
</g>
<g
   id="g3657">
</g>
<g
   id="g3659">
</g>
<g
   id="g3661">
</g>
<g
   id="g3663">
</g>
<g
   id="g3665">
</g>
</svg>
