<?xml version="1.0" encoding="UTF-8" standalone="no"?>
<!-- Generator: Adobe Illustrator 16.0.2, SVG Export Plug-In . SVG Version: 6.00 Build 0)  -->

<svg
   version="1.1"
   id="Layer_1"
   sodipodi:docname="maxaxleload_question.svg"
   inkscape:version="1.2 (dc2aedaf03, 2022-05-15)"
   inkscape:output_extension="org.inkscape.output.svg.inkscape"
   sodipodi:version="0.32"
   x="0px"
   y="0px"
   width="576"
   height="750"
   viewBox="0 0 576 750"
   enable-background="new 0 0 576 576"
   xml:space="preserve"
   xmlns:inkscape="http://www.inkscape.org/namespaces/inkscape"
   xmlns:sodipodi="http://sodipodi.sourceforge.net/DTD/sodipodi-0.dtd"
   xmlns="http://www.w3.org/2000/svg"
   xmlns:svg="http://www.w3.org/2000/svg">
<defs
   id="defs1485">
	<inkscape:perspective
   id="perspective2469"
   inkscape:persp3d-origin="288 : 366 : 1"
   sodipodi:type="inkscape:persp3d"
   inkscape:vp_x="0 : 462 : 1"
   inkscape:vp_y="0 : 1000 : 0"
   inkscape:vp_z="576 : 462 : 1" />
</defs>
<sodipodi:namedview
   id="base"
   inkscape:current-layer="Layer_1"
   inkscape:window-y="-8"
   inkscape:window-x="-8"
   inkscape:window-height="1027"
   inkscape:window-width="1920"
   inkscape:pageshadow="2"
   inkscape:pageopacity="0.0"
   objecttolerance="10.0"
   inkscape:cy="266.992"
   borderopacity="1.0"
   showgrid="false"
   inkscape:cx="-23.160752"
   bordercolor="#666666"
   pagecolor="#ffffff"
   inkscape:zoom="1.5543537"
   guidetolerance="10.0"
   gridtolerance="10.0"
   inkscape:showpageshadow="2"
   inkscape:pagecheckerboard="0"
   inkscape:deskcolor="#d1d1d1"
   inkscape:window-maximized="1" />



<circle
   id="circle2450"
   fill="#ff0000"
   stroke="#ff0000"
   stroke-width="0.1764"
   stroke-linecap="round"
   stroke-linejoin="round"
   cx="287.70035"
   cy="469.12625"
   r="273.98199" /><circle
   id="circle2452"
   fill="#ffffff"
   stroke="#ff0000"
   stroke-width="0.1764"
   stroke-linecap="round"
   stroke-linejoin="round"
   cx="287.70035"
   cy="469.12625"
   r="192.438" /><g
   id="g3139"
   transform="matrix(11.526167,0,0,11.526167,11.565727,201.67843)"
   style="stroke-width:0.0867591"><path
     d="m 30.797,10.217 v 1.686 l 0.13,0.13 h 0.972 V 13.2 h -1.102 v 1.621 c 0,0.232 0.086,0.384 0.26,0.454 h 0.389 l 0.389,-0.129 0.194,1.231 h -0.064 l -1.167,0.194 C 29.89,16.447 29.437,16.123 29.437,15.598 V 13.2 H 28.66 v -1.167 h 0.647 l 0.13,-0.13 v -1.361 z"
     id="path3141"
     style="fill:#1c1d20;stroke-width:0.0867591" /></g><path
   d="m 303.47743,409.41455 c 4.34536,0 3.80363,3.80364 3.80363,3.80364 v 38.83165 c 0,0 9.79725,-0.5302 9.79725,0 7.86084,0 3.23885,8.69073 3.23885,8.69073 l -28.23911,47.55697 c -1.90182,2.97375 -3.31954,2.72017 -3.31954,2.72017 0,0 -1.36008,0.24205 -3.25037,-2.72017 l -28.26217,-47.55697 c 0,0 -4.61046,-8.69073 3.26191,-8.69073 0,-0.5302 9.78571,0 9.78571,0 v -38.83165 c 0,0 -0.55325,-3.80364 3.79211,-3.80364 0,-0.27663 29.39173,-0.27663 29.39173,0"
   id="path3143"
   style="fill:#1c1d20;stroke-width:1" /><path
   d="m 257.98365,555.91213 c 0,-17.02414 13.79682,-30.79791 30.80944,-30.79791 17.01263,0 30.79792,13.77377 30.79792,30.79791 0,17.02415 -13.78529,30.79792 -30.79792,30.79792 -17.01262,0 -30.80944,-13.78529 -30.80944,-30.79792"
   id="path3145"
   style="fill:#1c1d20;stroke-width:1" /><path
   d="m 177.89984,568.24513 m 104.72675,0 H 177.91137 v -24.66599 h 104.71522 z"
   id="path3147"
   style="fill:#1c1d20;stroke-width:1" /><path
   d="m 147.10192,555.91213 c 0,-15.3298 12.40216,-27.73195 27.72043,-27.73195 15.30675,0 27.72043,12.40215 27.72043,27.73195 0,15.30675 -12.41368,27.70891 -27.72043,27.70891 -15.31827,0 -27.72043,-12.40216 -27.72043,-27.70891"
   id="path3149"
   style="fill:#1c1d20;stroke-width:1" /><path
   d="m 156.34591,522.0252 c 0,-10.22371 8.26426,-18.48797 18.47644,-18.48797 10.20066,0 18.47645,8.26426 18.47645,18.48797 0,10.21219 -8.27579,18.47645 -18.47645,18.47645 -10.21218,0 -18.47644,-8.26426 -18.47644,-18.47645"
   id="path3151"
   style="fill:#1c1d20;stroke-width:1" /><path
   d="m 156.34591,589.78754 c 0,-10.20066 8.26426,-18.48797 18.47644,-18.48797 10.20066,0 18.47645,8.29884 18.47645,18.48797 0,10.21218 -8.27579,18.48797 -18.47645,18.48797 -10.21218,0.0115 -18.47644,-8.27579 -18.47644,-18.48797"
   id="path3153"
   style="fill:#1c1d20;stroke-width:1" /><path
   d="m 156.34591,589.78754 m 36.96442,0 H 156.34591 V 522.0252 h 36.96442 z"
   id="path3155"
   style="fill:#1c1d20;stroke-width:1" /><path
   d="m 294.94807,568.24513 m 104.72675,0 H 294.94807 v -24.66599 h 104.72675 z"
   id="path3159"
   style="fill:#1c1d20;stroke-width:1" /><path
   d="m 375.0434,555.91213 c 0,-15.3298 12.40216,-27.73195 27.70891,-27.73195 15.30675,0 27.72043,12.40215 27.72043,27.73195 0,15.30675 -12.41368,27.70891 -27.72043,27.70891 -15.30675,0 -27.70891,-12.40216 -27.70891,-27.70891"
   id="path3161"
   style="fill:#1c1d20;stroke-width:1" /><path
   d="m 384.27586,522.0252 c 0,-10.22371 8.27579,-18.48797 18.48797,-18.48797 10.20066,0 18.48797,8.26426 18.48797,18.48797 0,10.21219 -8.28731,18.47645 -18.48797,18.47645 -10.21218,0 -18.48797,-8.26426 -18.48797,-18.47645"
   id="path3163"
   style="fill:#1c1d20;stroke-width:1" /><path
   d="m 384.27586,589.78754 c 0,-10.20066 8.27579,-18.48797 18.48797,-18.48797 10.20066,0 18.48797,8.29884 18.48797,18.48797 0,10.21218 -8.28731,18.48797 -18.48797,18.48797 -10.21218,0.0115 -18.48797,-8.27579 -18.48797,-18.48797"
   id="path3165"
   style="fill:#1c1d20;stroke-width:1" /><path
   d="m 384.27586,589.78754 m 36.97594,0 H 384.27586 V 522.0252 h 36.97594 z"
   id="path3167"
   style="fill:#1c1d20;stroke-width:1" /><text
   xml:space="preserve"
   style="font-size:140.757px;line-height:82.4747px;font-family:Arial;-inkscape-font-specification:Arial;letter-spacing:0px;word-spacing:0px;fill:#000000;stroke:none;stroke-width:0.999999px;stroke-linecap:butt;stroke-linejoin:miter;stroke-opacity:1"
   x="212.49976"
   y="405.31317"
   id="text2468"><tspan
     sodipodi:role="line"
     id="tspan2466"
     x="212.49976"
     y="405.31317"
     style="font-style:normal;font-variant:normal;font-weight:bold;font-stretch:normal;font-size:140.757px;font-family:Arial;-inkscape-font-specification:'Arial, Bold';font-variant-ligatures:normal;font-variant-caps:normal;font-variant-numeric:normal;font-variant-east-asian:normal;stroke-width:0.999999px">?</tspan></text></svg>
