<?xml version="1.0" encoding="UTF-8" standalone="no"?>
<!-- Generator: Adobe Illustrator 18.1.1, SVG Export Plug-In . SVG Version: 6.00 Build 0)  -->

<svg
   version="1.1"
   id="Capa_1"
   x="0px"
   y="0px"
   viewBox="0 0 228.728 228.728"
   style="enable-background:new 0 0 228.728 228.728;"
   xml:space="preserve"
   sodipodi:docname="cafe2.svg"
   inkscape:version="1.2.1 (9c6d41e410, 2022-07-14)"
   xmlns:inkscape="http://www.inkscape.org/namespaces/inkscape"
   xmlns:sodipodi="http://sodipodi.sourceforge.net/DTD/sodipodi-0.dtd"
   xmlns="http://www.w3.org/2000/svg"
   xmlns:svg="http://www.w3.org/2000/svg"><defs
   id="defs10228" /><sodipodi:namedview
   id="namedview10226"
   pagecolor="#ffffff"
   bordercolor="#000000"
   borderopacity="0.25"
   inkscape:showpageshadow="2"
   inkscape:pageopacity="0.0"
   inkscape:pagecheckerboard="0"
   inkscape:deskcolor="#d1d1d1"
   showgrid="false"
   inkscape:zoom="3.7030884"
   inkscape:cx="114.22898"
   inkscape:cy="114.49902"
   inkscape:window-width="1920"
   inkscape:window-height="1027"
   inkscape:window-x="-8"
   inkscape:window-y="-8"
   inkscape:window-maximized="1"
   inkscape:current-layer="g10191" />
<g
   id="g10193">
	<g
   id="g10191">
		<path
   style="fill:#010002;"
   d="M192.876,130.009c-1.457-11.216-6.61-19.469-14.509-23.22c-1.593-0.759-3.307-1.324-5.075-1.689    c0.512-6.392,0.777-11.674,0.777-15.289v-3.547H35.443v3.547c0,23.127,9.387,123.757,29.193,138.233l0.931,0.684h76.029    l0.952-0.676c5.565-4.087,10.89-15.02,15.801-32.517c11.012-5.089,21.459-16.291,27.987-29.987    C191.975,153.662,194.301,141.039,192.876,130.009z M68,221.638c-14.451-13.346-24.415-96.289-25.406-128.295h124.329    c-0.963,31.211-12.873,114.606-27.74,128.295H68z M172.667,112.276c1.02,0.243,1.882,0.537,2.663,0.909    c6.005,2.86,9.817,9.488,10.751,18.685c0.959,9.402-1.235,20.278-6.159,30.624c-4.656,9.806-11.56,18.277-19.072,23.481    C166.679,161.846,170.752,132.349,172.667,112.276z"
   id="path10185" />
		<path
   style="fill:#010002;"
   d="M92.336,35.721c3.636,1.457,5.698,3.443,6.317,6.07c1.428,6.045-4.277,14.519-8.417,19.229    l5.293,4.703c12.537-13.972,15.418-30.177-0.544-36.579c-3.686-1.478-5.766-3.457-6.342-6.048    C87.34,17.311,92.966,9.23,97.063,4.814L91.856,0C79.788,13.016,75.934,29.125,92.336,35.721z"
   id="path10187" />
		<path
   style="fill:#010002;"
   d="M119.478,46.89c3.636,1.464,5.701,3.45,6.317,6.08c1.428,6.027-4.273,14.516-8.407,19.229    l5.282,4.695c5.837-6.349,12.032-17.042,10.035-25.535c-2.824-12.014-15.21-9.462-16.914-17.089    c-1.31-5.791,4.327-13.857,8.414-18.277l-5.193-4.824C106.043,25.252,103.863,40.624,119.478,46.89z"
   id="path10189" />
	</g>
</g>
<g
   id="g10195">
</g>
<g
   id="g10197">
</g>
<g
   id="g10199">
</g>
<g
   id="g10201">
</g>
<g
   id="g10203">
</g>
<g
   id="g10205">
</g>
<g
   id="g10207">
</g>
<g
   id="g10209">
</g>
<g
   id="g10211">
</g>
<g
   id="g10213">
</g>
<g
   id="g10215">
</g>
<g
   id="g10217">
</g>
<g
   id="g10219">
</g>
<g
   id="g10221">
</g>
<g
   id="g10223">
</g>
</svg>
