<?xml version="1.0" encoding="UTF-8" standalone="no"?>
<svg
   width="20px"
   height="20px"
   viewBox="0 0 20 20"
   version="1.1"
   id="svg1633"
   sodipodi:docname="drink3.svg"
   inkscape:version="1.2.1 (9c6d41e410, 2022-07-14)"
   xmlns:inkscape="http://www.inkscape.org/namespaces/inkscape"
   xmlns:sodipodi="http://sodipodi.sourceforge.net/DTD/sodipodi-0.dtd"
   xmlns="http://www.w3.org/2000/svg"
   xmlns:svg="http://www.w3.org/2000/svg">
  <defs
     id="defs1637" />
  <sodipodi:namedview
     id="namedview1635"
     pagecolor="#ffffff"
     bordercolor="#666666"
     borderopacity="1.0"
     inkscape:showpageshadow="2"
     inkscape:pageopacity="0.0"
     inkscape:pagecheckerboard="0"
     inkscape:deskcolor="#d1d1d1"
     showgrid="false"
     inkscape:zoom="1"
     inkscape:cx="9.5"
     inkscape:cy="11"
     inkscape:window-width="1920"
     inkscape:window-height="1027"
     inkscape:window-x="-8"
     inkscape:window-y="-8"
     inkscape:window-maximized="1"
     inkscape:current-layer="svg1633" />
  <g
     id="g10029"
     transform="matrix(0.05090323,0,0,0.05090323,2.02278,3.81086)">
	<path
   d="M 145.182,116.641 44.026,94.07 c -4.077,-0.91 -8.279,0.845 -10.501,4.379 -10.294,16.384 -17.878,33.319 -20.805,46.462 -7.835,35.123 11.812,70.069 44.602,82.326 l -9.235,41.428 -20.36,-4.543 c -5.314,-1.19 -10.589,2.162 -11.775,7.479 -1.187,5.316 2.162,10.589 7.479,11.775 l 59.978,13.384 c 0.724,0.162 1.446,0.239 2.158,0.239 4.518,0 8.593,-3.124 9.617,-7.718 1.188,-5.316 -2.161,-10.589 -7.479,-11.775 l -20.362,-4.544 9.237,-41.436 c 1.933,0.158 3.867,0.265 5.8,0.265 15.958,0 31.674,-5.487 44.247,-15.448 12.764,-10.111 21.749,-24.45 25.302,-40.373 2.927,-13.132 3.254,-31.687 0.895,-50.903 -0.509,-4.143 -3.569,-7.518 -7.642,-8.426 z m -98.528,-1.771 87.309,19.48 c 0.445,5.133 0.67,10.163 0.684,14.942 L 39.688,128.104 c 2.044,-4.32 4.384,-8.778 6.966,-13.234 z m 86.019,56.805 c -5.221,23.402 -26.372,40.388 -50.293,40.388 -3.769,0 -7.564,-0.421 -11.282,-1.249 -0.002,0 -0.004,-0.002 -0.007,-0.002 -0.002,0 -0.004,-0.001 -0.006,-0.001 -27.76,-6.2 -45.305,-33.833 -39.109,-61.607 0.559,-2.51 1.36,-5.247 2.361,-8.143 l 99.656,22.235 c -0.323,3.049 -0.761,5.87 -1.32,8.379 z"
   id="path10025" />

	<path
   d="m 285.594,175.345 c -1.541,-5.225 -7.024,-8.216 -12.251,-6.672 l -19.954,5.884 -11.965,-40.607 c 31.835,-14.412 49.059,-50.539 38.905,-85 -3.803,-12.902 -12.492,-29.262 -23.842,-44.882 -2.452,-3.377 -6.766,-4.845 -10.77,-3.664 l -99.231,29.261 c -4.002,1.18 -6.829,4.751 -7.059,8.918 -1.064,19.282 0.505,37.741 4.305,50.644 8.865,30.089 36.939,51.104 68.27,51.106 0.002,0 0.002,0 0.004,0 3.513,0 7.021,-0.268 10.499,-0.789 l 11.959,40.594 -19.96,5.887 c -5.227,1.541 -8.212,7.026 -6.672,12.251 1.267,4.295 5.196,7.078 9.458,7.078 0.922,0 1.862,-0.131 2.793,-0.406 l 58.839,-17.351 c 5.225,-1.542 8.212,-7.028 6.672,-12.252 z M 158.868,46.581 244.493,21.333 c 2.864,4.256 5.488,8.53 7.809,12.687 l -93.115,27.458 c -0.304,-4.752 -0.418,-9.767 -0.319,-14.897 z m 53.135,74.023 c -22.645,-0.001 -42.937,-15.197 -49.346,-36.952 -0.725,-2.46 -1.35,-5.236 -1.875,-8.246 l 97.73,-28.818 c 1.189,2.812 2.169,5.479 2.893,7.938 8.025,27.239 -7.596,55.931 -34.821,63.96 v 0 h -0.002 l -0.002,10e-4 c -4.763,1.405 -9.667,2.117 -14.575,2.117 0,0 -0.001,0 -0.002,0 z"
   id="path10027" />

</g>
  <g
     id="g10031"
     transform="matrix(0.05090323,0,0,0.05090323,2.02278,3.81086)">
</g>
  <g
     id="g10033"
     transform="matrix(0.05090323,0,0,0.05090323,2.02278,3.81086)">
</g>
  <g
     id="g10035"
     transform="matrix(0.05090323,0,0,0.05090323,2.02278,3.81086)">
</g>
  <g
     id="g10037"
     transform="matrix(0.05090323,0,0,0.05090323,2.02278,3.81086)">
</g>
  <g
     id="g10039"
     transform="matrix(0.05090323,0,0,0.05090323,2.02278,3.81086)">
</g>
  <g
     id="g10041"
     transform="matrix(0.05090323,0,0,0.05090323,2.02278,3.81086)">
</g>
  <g
     id="g10043"
     transform="matrix(0.05090323,0,0,0.05090323,2.02278,3.81086)">
</g>
  <g
     id="g10045"
     transform="matrix(0.05090323,0,0,0.05090323,2.02278,3.81086)">
</g>
  <g
     id="g10047"
     transform="matrix(0.05090323,0,0,0.05090323,2.02278,3.81086)">
</g>
  <g
     id="g10049"
     transform="matrix(0.05090323,0,0,0.05090323,2.02278,3.81086)">
</g>
  <g
     id="g10051"
     transform="matrix(0.05090323,0,0,0.05090323,2.02278,3.81086)">
</g>
  <g
     id="g10053"
     transform="matrix(0.05090323,0,0,0.05090323,2.02278,3.81086)">
</g>
  <g
     id="g10055"
     transform="matrix(0.05090323,0,0,0.05090323,2.02278,3.81086)">
</g>
  <g
     id="g10057"
     transform="matrix(0.05090323,0,0,0.05090323,2.02278,3.81086)">
</g>
  <g
     id="g10059"
     transform="matrix(0.05090323,0,0,0.05090323,2.02278,3.81086)">
</g>
</svg>
