<?xml version="1.0" encoding="UTF-8"?>
<!-- Generator: Adobe Illustrator 18.0.0, SVG Export Plug-In . SVG Version: 6.00 Build 0)  -->
<svg enable-background="new 0 0 297 297" version="1.1" viewBox="0 0 297 297" xml:space="preserve" xmlns="http://www.w3.org/2000/svg">

	<path d="m145.18 116.64-101.16-22.571c-4.077-0.91-8.279 0.845-10.501 4.379-10.294 16.384-17.878 33.319-20.805 46.462-7.835 35.123 11.812 70.069 44.602 82.326l-9.235 41.428-20.36-4.543c-5.314-1.19-10.589 2.162-11.775 7.479-1.187 5.316 2.162 10.589 7.479 11.775l59.978 13.384c0.724 0.162 1.446 0.239 2.158 0.239 4.518 0 8.593-3.124 9.617-7.718 1.188-5.316-2.161-10.589-7.479-11.775l-20.362-4.544 9.237-41.436c1.933 0.158 3.867 0.265 5.8 0.265 15.958 0 31.674-5.487 44.247-15.448 12.764-10.111 21.749-24.45 25.302-40.373 2.927-13.132 3.254-31.687 0.895-50.903-0.509-4.143-3.569-7.518-7.642-8.426zm-98.528-1.771 87.309 19.48c0.445 5.133 0.67 10.163 0.684 14.942l-94.959-21.188c2.044-4.32 4.384-8.778 6.966-13.234zm86.019 56.805c-5.221 23.402-26.372 40.388-50.293 40.388-3.769 0-7.564-0.421-11.282-1.249-2e-3 0-4e-3 -2e-3 -7e-3 -2e-3 -2e-3 0-4e-3 -1e-3 -6e-3 -1e-3 -27.76-6.2-45.305-33.833-39.109-61.607 0.559-2.51 1.36-5.247 2.361-8.143l99.656 22.235c-0.323 3.049-0.761 5.87-1.32 8.379z"/>
	<path d="m285.59 175.34c-1.541-5.225-7.024-8.216-12.251-6.672l-19.954 5.884-11.965-40.607c31.835-14.412 49.059-50.539 38.905-85-3.803-12.902-12.492-29.262-23.842-44.882-2.452-3.377-6.766-4.845-10.77-3.664l-99.231 29.261c-4.002 1.18-6.829 4.751-7.059 8.918-1.064 19.282 0.505 37.741 4.305 50.644 8.865 30.089 36.939 51.104 68.27 51.106h4e-3c3.513 0 7.021-0.268 10.499-0.789l11.959 40.594-19.96 5.887c-5.227 1.541-8.212 7.026-6.672 12.251 1.267 4.295 5.196 7.078 9.458 7.078 0.922 0 1.862-0.131 2.793-0.406l58.839-17.351c5.225-1.542 8.212-7.028 6.672-12.252zm-126.73-128.76 85.625-25.248c2.864 4.256 5.488 8.53 7.809 12.687l-93.115 27.458c-0.304-4.752-0.418-9.767-0.319-14.897zm53.135 74.023c-22.645-1e-3 -42.937-15.197-49.346-36.952-0.725-2.46-1.35-5.236-1.875-8.246l97.73-28.818c1.189 2.812 2.169 5.479 2.893 7.938 8.025 27.239-7.596 55.931-34.821 63.96h-2e-3l-2e-3 1e-3c-4.763 1.405-9.667 2.117-14.575 2.117h-2e-3z"/>
















</svg>
