<?xml version="1.0" encoding="iso-8859-1"?>
<!-- Generator: Adobe Illustrator 19.0.0, SVG Export Plug-In . SVG Version: 6.00 Build 0)  -->
<svg version="1.1" id="Layer_1" xmlns="http://www.w3.org/2000/svg" xmlns:xlink="http://www.w3.org/1999/xlink" x="0px" y="0px"
	 viewBox="0 0 512 512" style="enable-background:new 0 0 512 512;" xml:space="preserve">
<path style="fill:#5B7F81;" d="M429.015,467.442l-210.131,1.892L8.752,467.442l47.83-116.752
	c23.219-56.671,57.283-109.231,127.294-109.231c11.971,0,23.539,0,35.006,0s23.036,0,35.006,0
	c70.012,0,104.075,52.56,127.294,109.231L429.015,467.442z"/>
<path style="fill:#415E5C;" d="M429.015,467.442l-210.131,1.892l-82.446-0.742c74.1-48.496,123.225-131.972,123.914-226.98
	c65.669,3.138,98.34,54.179,120.834,109.078L429.015,467.442z"/>
<path style="fill:#F4BB19;" d="M391.481,321.656l-8.39,146.587h-36.796h-36.796l-8.39-146.587h45.186H391.481z"/>
<path style="fill:#CF8F3D;" d="M215.598,42.667c36.264,0,65.667,29.119,65.667,65.04c0,35.922-29.402,65.04-65.667,65.04
	c-36.268,0-65.666-29.118-65.666-65.04C149.932,71.787,179.33,42.667,215.598,42.667L215.598,42.667z"/>
<path style="fill:#B76700;" d="M281.265,107.708c0,35.922-29.402,65.04-65.667,65.04c-20.97,0-39.63-9.747-51.652-24.903
	c6.256,1.959,12.913,3.023,19.824,3.023c36.264,0,65.667-29.118,65.667-65.04c0-15.151-5.246-29.08-14.017-40.137
	C261.997,54.017,281.265,78.631,281.265,107.708z"/>
<path style="fill:#C13421;" d="M303.751,393.62H171.957c3.479,41.778,31.782,74.623,65.899,74.623l0,0
	C271.972,468.243,300.282,435.399,303.751,393.62L303.751,393.62z"/>
<path style="fill:#FF4328;" d="M171.957,393.62h77.992c-2.498,30.067-17.861,55.504-38.994,67.405
	C189.822,449.124,174.46,423.687,171.957,393.62z"/>
<path style="fill:#B1D7C5;" d="M303.112,356.65l-2.003-34.994h45.186h45.186l-2.003,34.994H303.112z"/>
<path d="M503.248,460.582h-67.585l-38.051-92.88l2.607-45.546c0.138-2.404-0.721-4.759-2.374-6.509
	c-1.653-1.75-3.955-2.743-6.363-2.743h-18.249c-22.736-42.212-57.646-80.197-119.342-80.197h-70.013
	c-78.362,0-113.52,61.279-135.393,114.666L0.653,464.124c-1.101,2.687-0.798,5.745,0.81,8.162c1.607,2.418,4.307,3.882,7.211,3.908
	l125.754,1.131c1.087,0.485,2.288,0.759,3.556,0.759h80.823h0.079h0.079h284.285c4.833,0,8.752-3.919,8.752-8.752
	S508.081,460.582,503.248,460.582z M300.252,459.849l-19.051,0.172c2.673-2.331,5.243-4.876,7.676-7.653
	c3.797-4.332,7.177-9.108,10.134-14.216L300.252,459.849z M237.855,459.491c-26.452,0-49.701-24.421-55.891-57.119h111.781
	C287.564,435.073,264.315,459.491,237.855,459.491z M416.02,458.807l-23.634,0.212l2.908-50.805L416.02,458.807z M374.826,459.491
	h-57.061l-7.388-129.083h71.836L374.826,459.491z M64.682,354.009c21.03-51.327,51.638-103.798,119.195-103.798h70.013
	c49.158,0,78.744,27.786,99.319,62.693h-52.1c-2.408,0-4.71,0.992-6.363,2.743c-1.653,1.752-2.512,4.106-2.374,6.509l3.589,62.712
	H171.957c-2.447,0-4.783,1.024-6.44,2.826c-1.657,1.801-2.486,4.214-2.282,6.653c1.845,22.158,10.227,42.763,23.6,58.02
	c2.552,2.911,5.247,5.577,8.061,7.998l-173.148-1.559L64.682,354.009z M215.598,181.499c41.034,0,74.418-33.103,74.418-73.791
	s-33.383-73.793-74.418-73.793s-74.418,33.104-74.418,73.793S174.564,181.499,215.598,181.499z M215.598,51.419
	c31.383,0,56.914,25.251,56.914,56.288s-25.531,56.287-56.914,56.287s-56.914-25.25-56.914-56.287S184.215,51.419,215.598,51.419z
	 M229.103,350.031v-43.208c0-4.833,3.919-8.752,8.752-8.752c4.834,0,8.752,3.919,8.752,8.752v43.208
	c0,4.833-3.918,8.752-8.752,8.752C233.021,358.784,229.103,354.866,229.103,350.031z"/>
<g>
</g>
<g>
</g>
<g>
</g>
<g>
</g>
<g>
</g>
<g>
</g>
<g>
</g>
<g>
</g>
<g>
</g>
<g>
</g>
<g>
</g>
<g>
</g>
<g>
</g>
<g>
</g>
<g>
</g>
</svg>
