<?xml version="1.0" encoding="UTF-8" standalone="no"?>
<svg
   width="20px"
   height="20px"
   viewBox="0 0 20 20"
   version="1.1"
   id="svg1633"
   sodipodi:docname="eat_drink.svg"
   inkscape:version="1.2.1 (9c6d41e410, 2022-07-14)"
   xmlns:inkscape="http://www.inkscape.org/namespaces/inkscape"
   xmlns:sodipodi="http://sodipodi.sourceforge.net/DTD/sodipodi-0.dtd"
   xmlns="http://www.w3.org/2000/svg"
   xmlns:svg="http://www.w3.org/2000/svg">
  <defs
     id="defs1637" />
  <sodipodi:namedview
     id="namedview1635"
     pagecolor="#ffffff"
     bordercolor="#666666"
     borderopacity="1.0"
     inkscape:showpageshadow="2"
     inkscape:pageopacity="0.0"
     inkscape:pagecheckerboard="0"
     inkscape:deskcolor="#d1d1d1"
     showgrid="false"
     inkscape:zoom="4"
     inkscape:cx="-114.125"
     inkscape:cy="-61"
     inkscape:window-width="1920"
     inkscape:window-height="1017"
     inkscape:window-x="-8"
     inkscape:window-y="-8"
     inkscape:window-maximized="1"
     inkscape:current-layer="svg1633" />
  <path
     style="fill:#5b7f81;stroke-width:0.0363101"
     d="m 16.488071,19.005617 -7.6298848,0.06861 -7.6299223,-0.06861 1.7367138,-4.239267 c 0.8430848,-2.057726 2.0799543,-3.966189 4.6220619,-3.966189 0.4346691,0 0.8547051,0 1.2710733,0 0.4163681,0 0.8364393,0 1.2710731,0 2.542144,0 3.778978,1.908463 4.622061,3.966189 z"
     id="path848" />
  <path
     style="fill:#415e5c;stroke-width:0.0363101"
     d="m 16.488071,19.005617 -7.6298848,0.06861 -2.9936264,-0.02639 c 2.690582,-1.7609 4.4743162,-4.79193 4.4993342,-8.241693 2.384451,0.114051 3.57074,1.967247 4.3875,3.960647 z"
     id="path850" />
  <path
     style="fill:#f4bb19;stroke-width:0.0363101"
     d="m 15.125206,13.712126 -0.304643,5.322575 h -1.336067 -1.336068 l -0.304642,-5.322575 h 1.64071 z"
     id="path852" />
  <path
     style="fill:#cf8f3d;stroke-width:0.0363101"
     d="m 8.7388695,3.5819949 c 1.3167525,0 2.3843785,1.0573025 2.3843785,2.3616177 0,1.3043152 -1.067591,2.3615883 -2.3843785,2.3615883 -1.316896,0 -2.3843399,-1.0572731 -2.3843399,-2.3615883 0,-1.3042859 1.0674439,-2.3616177 2.3843399,-2.3616177 z"
     id="path854" />
  <path
     style="fill:#b76700;stroke-width:0.0363101"
     d="m 11.123248,5.9436419 c 0,1.3043152 -1.067591,2.3616177 -2.3843785,2.3616177 -0.7614237,0 -1.4389716,-0.3539099 -1.8754908,-0.9042572 0.2271638,0.071245 0.4688727,0.1099463 0.7198113,0.1099463 1.3167523,0 2.384378,-1.0573025 2.384378,-2.3616177 0,-0.550142 -0.1904857,-1.0559244 -0.5089576,-1.4573898 0.9650146,0.3023084 1.6646376,1.1960694 1.6646376,2.2518473 z"
     id="path856" />
  <path
     style="fill:#c13421;stroke-width:0.0363101"
     d="M 11.939718,16.325155 H 7.1542586 c 0.1263356,1.516966 1.1540083,2.709546 2.3928043,2.709546 v 0 c 1.2387551,0 2.2666941,-1.192551 2.3926551,-2.709546 z"
     id="path858" />
  <path
     style="fill:#ff4328;stroke-width:0.0363101"
     d="m 7.1542586,16.325155 h 2.8319006 c -0.090713,1.091723 -0.6485338,2.01536 -1.415877,2.447463 -0.7673403,-0.432103 -1.3251376,-1.35574 -1.4160236,-2.447463 z"
     id="path860" />
  <path
     style="fill:#b1d7c5;stroke-width:0.0363101"
     d="m 11.916515,14.982754 -0.07271,-1.270628 h 1.64071 1.64071 l -0.07274,1.270628 z"
     id="path862" />
  <path
     d="M 19.183483,18.756552 H 16.72946 l -1.381635,-3.372508 0.09467,-1.653769 c 0.005,-0.08737 -0.02609,-0.172689 -0.0862,-0.236311 -0.06002,-0.06362 -0.143604,-0.09969 -0.231034,-0.09969 H 14.46264 c -0.825551,-1.53274 -2.093138,-2.911965 -4.333325,-2.911965 H 7.5871334 c -2.845334,0 -4.1219257,2.22505 -4.9161381,4.163535 l -1.73678599,4.239237 c -0.0399765,0.09763 -0.0289672,0.208752 0.0294099,0.296386 0.0583478,0.08766 0.15638769,0.141025 0.26183349,0.141904 l 4.5661455,0.04105 c 0.039472,0.01759 0.083075,0.02639 0.129118,0.02639 h 2.9346964 0.00288 0.00288 10.3224264 c 0.175474,0 0.317786,-0.142197 0.317786,-0.317789 0,-0.175328 -0.142373,-0.317701 -0.317859,-0.317701 z m -7.370813,-0.02639 -0.691745,0.0059 c 0.09705,-0.08473 0.190369,-0.177087 0.278707,-0.277944 0.137858,-0.157443 0.260587,-0.330718 0.367968,-0.516191 z m -2.2656452,-0.01173 c -0.9604764,0 -1.8046501,-0.886754 -2.0294097,-2.073998 h 4.0587839 c -0.224437,1.187361 -1.068608,2.073998 -2.0293742,2.073998 z m 6.4691972,-0.02346 -0.858156,0.0088 0.105578,-1.844723 z m -1.495762,0.02346 h -2.07189 l -0.268269,-4.687026 h 2.608375 z M 3.25909,14.888347 c 0.7636018,-1.863693 1.8749823,-3.768901 4.3279877,-3.768901 h 2.5421793 c 1.784936,0 2.859208,1.008896 3.606289,2.276387 h -1.89176 c -0.08743,0 -0.171018,0.03606 -0.231034,0.09969 -0.06002,0.06362 -0.09121,0.14894 -0.0862,0.236311 l 0.130323,2.277091 H 7.1542615 c -0.088837,0 -0.1736565,0.03723 -0.2338485,0.102616 -0.060163,0.06538 -0.090273,0.153046 -0.082855,0.241589 0.066994,0.804543 0.3713429,1.552735 0.8569216,2.106718 0.092648,0.105842 0.190515,0.202595 0.2926918,0.290552 L 1.7001426,18.693809 Z M 8.7388695,8.624485 c 1.4899515,0 2.7021285,-1.2019625 2.7021285,-2.6793478 0,-1.4773854 -1.212142,-2.6794359 -2.7021285,-2.6794359 -1.4899867,0 -2.7021267,1.2020212 -2.7021267,2.6794359 0,1.4774147 1.2121781,2.6793478 2.7021267,2.6793478 z m 0,-4.723206 c 1.1395218,0 2.0665565,0.9168644 2.0665565,2.0438288 0,1.1269352 -0.9270347,2.0437702 -2.0665565,2.0437702 -1.1395218,0 -2.066554,-0.916835 -2.066554,-2.0437702 0,-1.1269644 0.9270322,-2.0438288 2.066554,-2.0438288 z m 0.4903694,10.842642 v -1.56889 c 0,-0.175621 0.1422852,-0.317788 0.3177859,-0.317788 0.175533,0 0.3177859,0.142197 0.3177859,0.317788 v 1.56889 c 0,0.175621 -0.1422559,0.317789 -0.3177859,0.317789 -0.175533,3e-5 -0.3177859,-0.142197 -0.3177859,-0.317789 z"
     id="path864"
     style="stroke-width:0.0363101" />
  <g
     id="g866"
     transform="matrix(0.03631014,0,0,0.03631014,0.91047674,2.0327486)">
</g>
  <g
     id="g868"
     transform="matrix(0.03631014,0,0,0.03631014,0.91047674,2.0327486)">
</g>
  <g
     id="g870"
     transform="matrix(0.03631014,0,0,0.03631014,0.91047674,2.0327486)">
</g>
  <g
     id="g872"
     transform="matrix(0.03631014,0,0,0.03631014,0.91047674,2.0327486)">
</g>
  <g
     id="g874"
     transform="matrix(0.03631014,0,0,0.03631014,0.91047674,2.0327486)">
</g>
  <g
     id="g876"
     transform="matrix(0.03631014,0,0,0.03631014,0.91047674,2.0327486)">
</g>
  <g
     id="g878"
     transform="matrix(0.03631014,0,0,0.03631014,0.91047674,2.0327486)">
</g>
  <g
     id="g880"
     transform="matrix(0.03631014,0,0,0.03631014,0.91047674,2.0327486)">
</g>
  <g
     id="g882"
     transform="matrix(0.03631014,0,0,0.03631014,0.91047674,2.0327486)">
</g>
  <g
     id="g884"
     transform="matrix(0.03631014,0,0,0.03631014,0.91047674,2.0327486)">
</g>
  <g
     id="g886"
     transform="matrix(0.03631014,0,0,0.03631014,0.91047674,2.0327486)">
</g>
  <g
     id="g888"
     transform="matrix(0.03631014,0,0,0.03631014,0.91047674,2.0327486)">
</g>
  <g
     id="g890"
     transform="matrix(0.03631014,0,0,0.03631014,0.91047674,2.0327486)">
</g>
  <g
     id="g892"
     transform="matrix(0.03631014,0,0,0.03631014,0.91047674,2.0327486)">
</g>
  <g
     id="g894"
     transform="matrix(0.03631014,0,0,0.03631014,0.91047674,2.0327486)">
</g>
</svg>
