<?xml version="1.0" encoding="UTF-8" standalone="no"?>
<svg
   width="20px"
   height="20px"
   viewBox="0 0 20 20"
   version="1.1"
   id="svg1633"
   sodipodi:docname="fast_food.svg"
   inkscape:version="1.2.1 (9c6d41e410, 2022-07-14)"
   xmlns:inkscape="http://www.inkscape.org/namespaces/inkscape"
   xmlns:sodipodi="http://sodipodi.sourceforge.net/DTD/sodipodi-0.dtd"
   xmlns="http://www.w3.org/2000/svg"
   xmlns:svg="http://www.w3.org/2000/svg">
  <defs
     id="defs1637" />
  <sodipodi:namedview
     id="namedview1635"
     pagecolor="#ffffff"
     bordercolor="#666666"
     borderopacity="1.0"
     inkscape:showpageshadow="2"
     inkscape:pageopacity="0.0"
     inkscape:pagecheckerboard="0"
     inkscape:deskcolor="#d1d1d1"
     showgrid="false"
     inkscape:zoom="32"
     inkscape:cx="-4.546875"
     inkscape:cy="10.875"
     inkscape:window-width="1920"
     inkscape:window-height="1017"
     inkscape:window-x="-8"
     inkscape:window-y="-8"
     inkscape:window-maximized="1"
     inkscape:current-layer="g578" />
  <g
     id="g578"
     transform="matrix(0.03949228,0,0,0.03949228,0.95900013,2.19987)">
    <path
       d="m 11.796,306.42 h 237.037 c 1.668,0 3.26,-0.711 4.381,-1.947 1.121,-1.236 1.67,-2.887 1.51,-4.548 -4.563,-47.249 -58.519,-84.545 -124.41,-84.545 -65.891,0 -119.847,37.297 -124.409,84.546 -0.161,1.662 0.385,3.315 1.507,4.552 1.121,1.237 2.714,1.942 4.384,1.942 z"
       id="path568"
       style="fill:#c87137;stroke:#000000;stroke-opacity:1;stroke-width:12.66070229;stroke-dasharray:none" />
    <path
       d="M 248.832,364.24 H 11.796 c -1.67,0 -3.262,0.706 -4.384,1.942 -1.122,1.237 -1.667,2.891 -1.507,4.553 1.243,12.86 6.148,24.982 13.955,35.816 5.03,6.979 13.114,11.109 21.718,11.109 H 219.05 c 8.59,0 16.695,-4.14 21.717,-11.109 7.807,-10.834 12.712,-22.956 13.955,-35.816 0.16,-1.661 -0.388,-3.312 -1.51,-4.548 -1.122,-1.236 -2.711,-1.947 -4.38,-1.947 z"
       id="path570"
       style="fill:#c87137;stroke:#000000;stroke-opacity:1;stroke-width:12.66070229;stroke-dasharray:none" />
    <path
       d="M 245.744,320.604 H 14.884 C 6.664,320.604 0,327.267 0,335.487 c 0,8.22 6.664,14.883 14.884,14.883 h 230.86 c 8.22,0 14.883,-6.664 14.883,-14.883 0,-8.22 -6.664,-14.883 -14.883,-14.883 z"
       id="path572"
       style="fill:#ffd42a;stroke-width:12.66070229;stroke-dasharray:none;stroke:#000000;stroke-opacity:1" />
    <path
       d="m 442.698,172.329 c -2.108,0 -3.332,-2.311 -2.22,-4.102 1.378,-2.222 2.188,-4.833 2.219,-7.634 0.094,-8.281 -7.035,-15.055 -15.317,-15.055 h -63.196 l 4.921,-68.878 52.885,22.49 c 7.782,3.31 16.813,-0.519 19.787,-8.542 2.786,-7.514 -1.15,-15.879 -8.524,-19.016 L 361.57,41.109 c -4.425,-1.881 -9.486,-1.51 -13.587,0.998 -4.103,2.508 -6.74,6.842 -7.083,11.638 l -6.558,91.794 h -63.777 c -8.281,0 -15.41,6.774 -15.317,15.055 0.032,2.801 0.841,5.412 2.219,7.634 1.111,1.791 -0.113,4.102 -2.22,4.102 -8.22,0 -14.883,6.664 -14.883,14.884 0,7.101 4.813,14.515 11.629,14.515 56.444,0 138.568,0 193.96,0 6.816,0 11.629,-7.415 11.629,-14.515 0,-8.222 -6.664,-14.885 -14.884,-14.885 z"
       id="path574"
       style="fill:#000000" />
    <path
       d="m 284.99,405.52 c 0.817,6.924 6.686,12.141 13.657,12.141 h 100.65 c 6.972,0 12.841,-5.217 13.658,-12.141 L 435.33,215.911 H 262.615 Z"
       id="path576"
       style="fill:#ff0000;stroke:#000000;stroke-opacity:1;stroke-width:12.66070229;stroke-dasharray:none" />
  </g>
  <g
     id="g580"
     transform="matrix(0.03949228,0,0,0.03949228,0.95900013,2.19987)" />
  <g
     id="g582"
     transform="matrix(0.03949228,0,0,0.03949228,0.95900013,2.19987)" />
  <g
     id="g584"
     transform="matrix(0.03949228,0,0,0.03949228,0.95900013,2.19987)" />
  <g
     id="g586"
     transform="matrix(0.03949228,0,0,0.03949228,0.95900013,2.19987)" />
  <g
     id="g588"
     transform="matrix(0.03949228,0,0,0.03949228,0.95900013,2.19987)" />
  <g
     id="g590"
     transform="matrix(0.03949228,0,0,0.03949228,0.95900013,2.19987)" />
  <g
     id="g592"
     transform="matrix(0.03949228,0,0,0.03949228,0.95900013,2.19987)" />
  <g
     id="g594"
     transform="matrix(0.03949228,0,0,0.03949228,0.95900013,2.19987)" />
  <g
     id="g596"
     transform="matrix(0.03949228,0,0,0.03949228,0.95900013,2.19987)" />
  <g
     id="g598"
     transform="matrix(0.03949228,0,0,0.03949228,0.95900013,2.19987)" />
  <g
     id="g600"
     transform="matrix(0.03949228,0,0,0.03949228,0.95900013,2.19987)" />
  <g
     id="g602"
     transform="matrix(0.03949228,0,0,0.03949228,0.95900013,2.19987)" />
  <g
     id="g604"
     transform="matrix(0.03949228,0,0,0.03949228,0.95900013,2.19987)" />
  <g
     id="g606"
     transform="matrix(0.03949228,0,0,0.03949228,0.95900013,2.19987)" />
  <g
     id="g608"
     transform="matrix(0.03949228,0,0,0.03949228,0.95900013,2.19987)" />
</svg>
