<?xml version="1.0" encoding="UTF-8" standalone="no"?>
<svg
   width="20px"
   height="20px"
   viewBox="0 0 20 20"
   version="1.1"
   id="svg1633"
   sodipodi:docname="hotel.svg"
   inkscape:version="1.2.1 (9c6d41e410, 2022-07-14)"
   xmlns:inkscape="http://www.inkscape.org/namespaces/inkscape"
   xmlns:sodipodi="http://sodipodi.sourceforge.net/DTD/sodipodi-0.dtd"
   xmlns="http://www.w3.org/2000/svg"
   xmlns:svg="http://www.w3.org/2000/svg">
  <defs
     id="defs1637" />
  <sodipodi:namedview
     id="namedview1635"
     pagecolor="#ffffff"
     bordercolor="#666666"
     borderopacity="1.0"
     inkscape:showpageshadow="2"
     inkscape:pageopacity="0.0"
     inkscape:pagecheckerboard="0"
     inkscape:deskcolor="#d1d1d1"
     showgrid="false"
     inkscape:zoom="11.313708"
     inkscape:cx="-33.808543"
     inkscape:cy="-2.4748737"
     inkscape:window-width="1920"
     inkscape:window-height="1017"
     inkscape:window-x="-8"
     inkscape:window-y="-8"
     inkscape:window-maximized="1"
     inkscape:current-layer="svg1633" />
  <g
     id="g1590"
     transform="matrix(0.4645143,0,0,0.4645143,28.007497,18.738749)">
</g>
  <g
     id="g1592"
     transform="matrix(0.4645143,0,0,0.4645143,28.007497,18.738749)">
</g>
  <g
     id="g1594"
     transform="matrix(0.4645143,0,0,0.4645143,28.007497,18.738749)">
</g>
  <g
     id="g1596"
     transform="matrix(0.4645143,0,0,0.4645143,28.007497,18.738749)">
</g>
  <g
     id="g1598"
     transform="matrix(0.4645143,0,0,0.4645143,28.007497,18.738749)">
</g>
  <g
     id="g1600"
     transform="matrix(0.4645143,0,0,0.4645143,28.007497,18.738749)">
</g>
  <g
     id="g1602"
     transform="matrix(0.4645143,0,0,0.4645143,28.007497,18.738749)">
</g>
  <g
     id="g1604"
     transform="matrix(0.4645143,0,0,0.4645143,28.007497,18.738749)">
</g>
  <g
     id="g1606"
     transform="matrix(0.4645143,0,0,0.4645143,28.007497,18.738749)">
</g>
  <g
     id="g1608"
     transform="matrix(0.4645143,0,0,0.4645143,28.007497,18.738749)">
</g>
  <g
     id="g1610"
     transform="matrix(0.4645143,0,0,0.4645143,28.007497,18.738749)">
</g>
  <g
     id="g1612"
     transform="matrix(0.4645143,0,0,0.4645143,28.007497,18.738749)">
</g>
  <g
     id="g1614"
     transform="matrix(0.4645143,0,0,0.4645143,28.007497,18.738749)">
</g>
  <g
     id="g1616"
     transform="matrix(0.4645143,0,0,0.4645143,28.007497,18.738749)">
</g>
  <g
     id="g1618"
     transform="matrix(0.4645143,0,0,0.4645143,28.007497,18.738749)">
</g>
  <path
     sodipodi:type="star"
     style="fill:#ffff00"
     id="path5399"
     inkscape:flatsided="false"
     sodipodi:sides="5"
     sodipodi:cx="-29.521708"
     sodipodi:cy="1.6793786"
     sodipodi:r1="4.1551924"
     sodipodi:r2="2.0775962"
     sodipodi:arg1="0.90602183"
     sodipodi:arg2="1.5343404"
     inkscape:rounded="0"
     inkscape:randomized="0"
     d="m -26.958446,4.9497474 -2.487538,-1.194153 -2.393938,1.3721908 0.367016,-2.7348029 -2.044799,-1.85273996 2.714367,-0.49604813 1.130182,-2.51724701 1.310556,2.42822821 2.743289,0.29699572 -1.904398,1.99677577 z"
     inkscape:transform-center-x="0.027522517"
     inkscape:transform-center-y="-0.20701138"
     transform="matrix(0.5880795,0,0,0.5880795,22.874534,1.7154346)" />
  <path
     sodipodi:type="star"
     style="fill:#ffff00"
     id="path5399-2"
     inkscape:flatsided="false"
     sodipodi:sides="5"
     sodipodi:cx="-29.521708"
     sodipodi:cy="1.6793786"
     sodipodi:r1="4.1551924"
     sodipodi:r2="2.0775962"
     sodipodi:arg1="0.90602183"
     sodipodi:arg2="1.5343404"
     inkscape:rounded="0"
     inkscape:randomized="0"
     d="m -26.958446,4.9497474 -2.487538,-1.194153 -2.393938,1.3721908 0.367016,-2.7348029 -2.044799,-1.85273996 2.714367,-0.49604813 1.130182,-2.51724701 1.310556,2.42822821 2.743289,0.29699572 -1.904398,1.99677577 z"
     inkscape:transform-center-x="0.02752203"
     inkscape:transform-center-y="-0.20701131"
     transform="matrix(0.5880795,0,0,0.5880795,27.63218,1.6105697)" />
  <path
     sodipodi:type="star"
     style="fill:#ffff00"
     id="path5399-5"
     inkscape:flatsided="false"
     sodipodi:sides="5"
     sodipodi:cx="-29.521708"
     sodipodi:cy="1.6793786"
     sodipodi:r1="4.1551924"
     sodipodi:r2="2.0775962"
     sodipodi:arg1="0.90602183"
     sodipodi:arg2="1.5343404"
     inkscape:rounded="0"
     inkscape:randomized="0"
     d="m -26.958446,4.9497474 -2.487538,-1.194153 -2.393938,1.3721908 0.367016,-2.7348029 -2.044799,-1.85273996 2.714367,-0.49604813 1.130182,-2.51724701 1.310556,2.42822821 2.743289,0.29699572 -1.904398,1.99677577 z"
     inkscape:transform-center-x="0.027522075"
     inkscape:transform-center-y="-0.20701132"
     transform="matrix(0.5880795,0,0,0.5880795,32.310323,1.4546316)" />
  <text
     xml:space="preserve"
     style="font-style:normal;font-variant:normal;font-weight:bold;font-stretch:normal;font-size:19.8054px;font-family:sans-serif;-inkscape-font-specification:'sans-serif Bold';fill:#000000;stroke-width:1.65045"
     x="2.7704103"
     y="18.93218"
     id="text5490"
     transform="scale(0.95621958,1.0457849)"><tspan
       sodipodi:role="line"
       id="tspan5488"
       x="2.7704103"
       y="18.93218"
       style="stroke-width:1.65045">H</tspan></text>
</svg>
