<?xml version="1.0" encoding="UTF-8" standalone="no"?>
<svg
   width="20px"
   height="20px"
   viewBox="0 0 20 20"
   version="1.1"
   id="svg1633"
   sodipodi:docname="hotel.svg"
   inkscape:version="1.2.1 (9c6d41e410, 2022-07-14)"
   xmlns:inkscape="http://www.inkscape.org/namespaces/inkscape"
   xmlns:sodipodi="http://sodipodi.sourceforge.net/DTD/sodipodi-0.dtd"
   xmlns="http://www.w3.org/2000/svg"
   xmlns:svg="http://www.w3.org/2000/svg">
  <defs
     id="defs1637" />
  <sodipodi:namedview
     id="namedview1635"
     pagecolor="#ffffff"
     bordercolor="#666666"
     borderopacity="1.0"
     inkscape:showpageshadow="2"
     inkscape:pageopacity="0.0"
     inkscape:pagecheckerboard="0"
     inkscape:deskcolor="#d1d1d1"
     showgrid="false"
     inkscape:zoom="4"
     inkscape:cx="-114.125"
     inkscape:cy="-41"
     inkscape:window-width="1920"
     inkscape:window-height="1017"
     inkscape:window-x="-8"
     inkscape:window-y="-8"
     inkscape:window-maximized="1"
     inkscape:current-layer="svg1633" />
  <g
     id="g1588"
     transform="matrix(0.06903675,0,0,0.06903675,0.48969202,-0.22787883)">
	<g
   id="g1586">
		<g
   id="g1584">
			<path
   d="m 27.152,128.638 -1.584,1.584 v 38.072 l 1.584,1.584 h 33.16 l 1.584,-1.584 v -38.072 l -1.584,-1.584 z m 31.58,38.072 H 58.728 28.736 v -34.904 h 29.996 z"
   id="path1552" />

			<path
   d="m 56.148,163.982 v -0.004 l 0.528,-0.528 v -24.916 c 0,-0.292 -0.236,-0.528 -0.528,-0.528 -0.292,0 -0.528,0.236 -0.528,0.528 v 10.604 H 31.84 v -13.544 h 9.028 0.944 6.96 c 0.292,0 0.528,-0.236 0.528,-0.528 0,-0.292 -0.236,-0.528 -0.528,-0.528 h -6.96 -0.944 -9.556 l -0.528,0.528 v 28.388 l 0.528,0.528 z M 31.84,150.19 h 23.78 v 12.732 H 31.84 Z"
   id="path1554" />

			<path
   d="m 82.108,225.354 c 0.18,0.036 0.356,0.056 0.536,0.056 0.512,0 1.016,-0.148 1.452,-0.44 0.588,-0.388 0.988,-0.984 1.132,-1.672 0.144,-0.688 0.004,-1.396 -0.384,-1.984 -0.384,-0.588 -0.976,-0.988 -1.668,-1.132 -0.696,-0.14 -1.396,-0.004 -1.988,0.384 -0.588,0.388 -0.988,0.984 -1.132,1.672 -0.14,0.692 -0.004,1.396 0.384,1.984 0.384,0.588 0.98,0.988 1.668,1.132 z m -1.012,-2.904 c 0.084,-0.416 0.324,-0.772 0.676,-1.004 0.356,-0.236 0.788,-0.312 1.188,-0.228 0.416,0.084 0.772,0.324 1.004,0.68 0.232,0.352 0.316,0.772 0.228,1.188 -0.084,0.416 -0.324,0.772 -0.676,1.004 -0.356,0.232 -0.784,0.316 -1.188,0.228 -0.416,-0.084 -0.772,-0.324 -1.004,-0.68 -0.232,-0.356 -0.316,-0.776 -0.228,-1.188 z"
   id="path1556" />

			<path
   d="m 142.724,129.042 -1.584,1.584 v 38.076 l 1.584,1.584 h 33.164 l 1.584,-1.584 v -38.076 l -1.584,-1.584 z m 31.58,38.072 H 144.308 V 132.21 h 29.996 z"
   id="path1558" />

			<path
   d="m 171.724,164.386 v -0.004 l 0.528,-0.528 v -24.916 c 0,-0.292 -0.236,-0.528 -0.528,-0.528 -0.292,0 -0.528,0.236 -0.528,0.528 v 10.604 h -23.784 v -13.544 h 9.032 0.944 6.956 c 0.292,0 0.528,-0.236 0.528,-0.528 0,-0.292 -0.236,-0.528 -0.528,-0.528 h -6.956 -0.944 -9.56 l -0.528,0.528 v 28.388 l 0.528,0.528 z m -24.312,-13.792 h 23.784 v 12.732 h -23.784 z"
   id="path1560" />

			<path
   d="m 85.78,129.042 -1.584,1.584 v 38.076 l 1.584,1.584 h 33.16 l 1.584,-1.584 v -38.076 l -1.584,-1.584 z m 31.576,38.072 H 87.36 V 132.21 h 29.996 z"
   id="path1562" />

			<path
   d="m 114.776,164.386 v -0.004 l 0.528,-0.528 v -24.916 c 0,-0.292 -0.236,-0.528 -0.528,-0.528 -0.292,0 -0.528,0.236 -0.528,0.528 v 10.604 h -23.78 v -13.544 h 9.028 0.944 6.96 c 0.292,0 0.528,-0.236 0.528,-0.528 0,-0.292 -0.236,-0.528 -0.528,-0.528 h -6.96 -0.944 -9.556 l -0.528,0.528 v 28.388 l 0.528,0.528 z M 90.472,150.594 h 23.78 v 12.732 h -23.78 z"
   id="path1564" />

			<path
   d="m 27.152,190.878 -1.584,1.584 v 38.072 l 1.584,1.584 h 33.16 l 1.584,-1.584 v -38.072 l -1.584,-1.584 z m 31.58,38.072 H 58.728 28.736 v -34.904 h 29.996 z"
   id="path1566" />

			<path
   d="m 56.148,226.222 v -0.004 l 0.528,-0.528 v -24.916 c 0,-0.292 -0.236,-0.528 -0.528,-0.528 -0.292,0 -0.528,0.236 -0.528,0.528 v 10.604 H 31.84 v -13.544 h 9.028 0.944 6.96 c 0.292,0 0.528,-0.236 0.528,-0.528 0,-0.292 -0.236,-0.528 -0.528,-0.528 h -6.96 -0.944 -9.556 l -0.528,0.528 v 28.388 l 0.528,0.528 z M 31.84,212.43 h 23.78 v 12.732 H 31.84 Z"
   id="path1568" />

			<path
   d="m 60.2,115.83 1.584,-1.584 V 76.17 L 60.2,74.586 H 27.036 l -1.584,1.584 v 38.076 l 1.584,1.584 z M 28.616,77.758 h 29.996 v 34.904 H 28.616 Z"
   id="path1570" />

			<path
   d="m 56.036,83.958 c -0.292,0 -0.528,0.236 -0.528,0.528 V 95.09 H 31.724 V 81.542 h 9.032 0.944 6.956 c 0.292,0 0.528,-0.236 0.528,-0.528 0,-0.292 -0.236,-0.528 -0.528,-0.528 H 41.7 40.756 31.196 l -0.528,0.528 v 28.388 l 0.528,0.528 h 24.84 l 0.528,-0.528 V 84.486 c 0,-0.292 -0.236,-0.528 -0.528,-0.528 z m -0.528,24.916 H 31.724 V 96.142 h 23.784 z"
   id="path1572" />

			<path
   d="m 175.772,116.234 1.584,-1.584 V 76.574 l -1.584,-1.584 h -33.164 l -1.584,1.584 v 38.076 l 1.584,1.584 z m -31.58,-38.072 h 29.996 v 34.904 h -29.996 z"
   id="path1574" />

			<path
   d="m 171.612,84.362 c -0.292,0 -0.528,0.236 -0.528,0.528 V 95.494 H 147.3 V 81.95 h 9.032 0.944 6.956 c 0.292,0 0.528,-0.236 0.528,-0.528 0,-0.292 -0.236,-0.528 -0.528,-0.528 h -6.956 -0.944 -9.56 l -0.528,0.528 v 28.388 l 0.528,0.528 h 24.84 l 0.528,-0.528 V 84.894 c 0,-0.296 -0.236,-0.532 -0.528,-0.532 z m -0.528,24.92 H 147.3 V 96.55 h 23.784 z"
   id="path1576" />

			<path
   d="m 118.828,116.234 1.584,-1.584 V 76.574 L 118.828,74.99 H 85.664 l -1.584,1.584 v 38.076 l 1.584,1.584 z M 87.248,78.162 h 29.996 v 34.904 H 87.248 Z"
   id="path1578" />

			<path
   d="m 114.664,84.362 c -0.292,0 -0.528,0.236 -0.528,0.528 V 95.494 H 90.352 V 81.95 h 9.032 0.944 6.956 c 0.292,0 0.528,-0.236 0.528,-0.528 0,-0.292 -0.236,-0.528 -0.528,-0.528 h -6.956 -0.944 -9.56 l -0.528,0.528 v 28.388 l 0.528,0.528 h 24.84 l 0.528,-0.528 V 84.894 c 0,-0.296 -0.236,-0.532 -0.528,-0.532 z m -0.528,24.92 H 90.352 V 96.55 h 23.784 z"
   id="path1580" />

			<path
   d="m 288.54,177.642 c -7.644,-8.928 -17.592,-14.892 -29.572,-17.728 -10.924,-2.588 -21.976,-2.012 -32.892,1.704 0.632,-4.372 1.196,-11.524 0.732,-12.884 l -0.624,-1.836 -1.48,1.26 c -1.14,0.972 -9.948,12.852 -13.748,18.3 -4.52,-1.572 -13.66,-4.516 -18.124,-5.768 V 62.45 h 4.24 l 1.848,-1.848 V 49.49 l -1.848,-1.848 h -13.664 l -2.252,-13.12 9.596,-9.352 c 0.504,-0.492 0.684,-1.224 0.464,-1.896 -0.22,-0.668 -0.796,-1.156 -1.492,-1.256 L 176.46,20.09 170.528,8.074 c -0.62,-1.26 -2.688,-1.26 -3.316,0 l -5.928,12.016 -13.264,1.928 c -0.592,0.084 -1.048,0.484 -1.32,1.004 -0.272,-0.516 -0.732,-0.916 -1.32,-1.004 L 132.116,20.09 126.188,8.074 c -0.312,-0.632 -0.956,-1.032 -1.66,-1.032 -0.704,0 -1.348,0.4 -1.656,1.028 l -5.932,12.016 -13.264,1.928 c -0.588,0.084 -1.044,0.484 -1.32,1 -0.272,-0.516 -0.728,-0.916 -1.32,-1 L 87.772,20.086 81.84,8.07 c -0.62,-1.26 -2.688,-1.26 -3.316,0 l -5.928,12.016 -13.264,1.928 c -0.592,0.084 -1.048,0.484 -1.32,1.004 -0.272,-0.516 -0.732,-0.916 -1.32,-1.004 L 43.428,20.086 37.5,8.07 C 37.188,7.438 36.544,7.038 35.84,7.038 c -0.704,0 -1.348,0.4 -1.656,1.028 L 28.252,20.082 14.988,22.01 c -0.696,0.1 -1.272,0.588 -1.492,1.256 -0.22,0.668 -0.036,1.404 0.464,1.896 l 9.6,9.352 -2.252,13.12 H 4.172 L 2.336,49.49 v 11.112 l 1.848,1.848 h 4.24 V 268.57 H 1.848 L 0,270.418 v 9.756 l 1.848,1.848 h 197.56 l 0.088,-0.088 h 49.32 l 0.696,-0.26 c 7.576,-6.64 5.244,-12.748 3.884,-15.068 -1.916,-3.284 -5.58,-5.584 -7.632,-4.876 -0.024,0.012 -0.12,-0.008 -0.184,-0.028 2.108,-3.756 0.376,-9.136 -2.512,-12.048 -1.636,-1.656 -3.5,-2.388 -5.296,-2.32 -2.608,-17.484 -10.476,-44.844 -15.512,-61.232 0.16,-0.1 0.344,-0.148 0.492,-0.26 0.504,-0.392 0.9,-0.876 1.24,-1.396 6.164,7.316 15.78,21.36 30.792,47.208 2.892,4.988 2.888,4.98 4.012,4.508 l 0.664,-0.284 0.12,-0.716 c 2.06,-12.432 0.048,-24.54 -5.98,-35.992 -5.164,-9.812 -12.624,-17.54 -22.728,-23.52 4.04,-0.404 8.24,-0.684 12.428,-0.58 9.504,0.244 27.168,2.592 36.66,3.852 8.404,1.116 8.384,1.108 8.804,0.068 l 0.296,-0.74 z m -46.976,73.496 c 2.392,2.412 3.796,6.872 2.084,9.672 -0.436,0.716 -0.396,1.512 0.104,2.132 0.592,0.728 1.82,1.084 2.652,0.792 0.72,-0.26 3.464,1.016 5.164,3.932 1.336,2.28 2.668,6.86 -3.16,12.148 H 238.5 c 0.26,-3.72 0.396,-7.46 0.436,-11.204 0.048,-0.08 0.12,-0.144 0.136,-0.24 0.032,-0.188 -0.032,-0.364 -0.124,-0.52 0.028,-4.612 -0.1,-9.224 -0.412,-13.8 -0.096,-1.412 -0.276,-2.992 -0.488,-4.636 1.52,0.064 2.784,0.98 3.516,1.724 z M 226.288,164.37 c 10.664,-3.748 21.448,-4.408 32.068,-1.888 4.588,1.088 8.848,2.68 12.792,4.716 -14.772,-4.544 -30.64,-5.176 -45.996,-1.78 0.384,-0.344 0.74,-0.716 1.136,-1.048 z m -15.268,4.908 0.956,0.344 0.576,-0.84 c 2.88,-4.208 8.588,-11.92 11.732,-15.992 -0.172,3.252 -0.636,8.044 -1.184,10.548 l -0.096,0.428 c -3.464,3.12 -6.62,6.56 -10,9.772 -5.336,-1.32 -10.524,-3.148 -15.928,-4.184 -1.208,-1.424 -2.984,-4.004 -4.188,-5.92 4.492,1.316 13.36,4.136 18.132,5.844 z m -40.276,40.344 v 12.732 h -23.78 v -4.072 c 1.468,-0.8 5.204,-2.92 15.04,-8.66 z m -6.936,-1.056 c 2.06,-1.204 4.364,-2.552 6.936,-4.06 v 4.06 z M 146.96,206.73 v -11.708 h 6.5 c -1.92,2.744 -3.736,5.616 -5.332,8.772 -0.36,0.72 -0.76,1.768 -1.168,2.936 z m 0.38,8.336 c 0.696,-3 2.04,-7.888 3.152,-10.08 9.236,-18.296 24.176,-29.344 44.396,-32.832 l 1.436,-0.264 c 0.816,0.156 1.62,0.348 2.424,0.536 -19.22,7.308 -35.236,21.14 -45.528,39.252 -2.512,1.456 -4.528,2.62 -5.88,3.388 z m 6.892,-21.096 h -7.796 l -0.528,0.528 v 15.596 c -0.956,3.316 -1.72,6.676 -1.668,7.512 l 0.104,1.64 1.56,-0.452 v 4.088 l 0.528,0.528 h 24.836 l 0.528,-0.528 v -18.996 c 0.664,-0.388 1.356,-0.796 2.056,-1.208 v 23.46 h -29.996 v -34.904 h 12.364 c -0.7,0.864 -1.324,1.824 -1.988,2.736 z m 0.852,16.628 c 10.456,-17.548 26.396,-30.9 45.44,-37.76 3.04,0.78 6.044,1.692 9.068,2.528 -6.496,3.84 -11.936,9.024 -17.236,14.412 -1.092,0.516 -2.16,1 -3.188,1.46 -2.304,1.036 -4.48,2.008 -6.544,3.228 -11.708,6.888 -21.072,12.372 -27.54,16.132 z m 38.42,-16.996 c 0.16,-0.344 0.292,-0.7 0.48,-1.236 l 0.284,-0.772 c 3.936,-4 7.944,-7.88 12.412,-11.176 -0.932,1.268 -1.664,2.864 -2.06,4.68 -0.052,0.244 -0.056,0.484 -0.096,0.728 -11.708,14.576 -14.108,32.112 -6.82,49.88 -0.292,3.672 -0.568,7.516 -0.828,11.54 -3.708,-11.448 -10.532,-38.316 -3.372,-53.644 z m 10.848,-5.824 c -0.004,0.556 0,1.108 0.076,1.632 -2.732,9.596 -4.88,24.132 -6.528,43.96 -5.996,-16.208 -3.72,-32.124 6.452,-45.592 z m 1.764,5.62 c 0.776,0.94 1.712,1.616 2.828,1.828 0.1,0.02 0.2,0.016 0.296,0.028 0.164,0.796 0.316,1.5 0.444,2.012 2.64,10.672 4.116,21.86 4.488,33.812 -0.092,-0.024 -0.184,-0.076 -0.272,-0.092 -2.848,-0.604 -5.688,0.88 -7.624,3.896 -0.244,-0.428 -0.504,-0.932 -0.68,-1.276 -0.38,-0.736 -0.704,-1.368 -0.988,-1.736 -1.024,-1.32 -2.28,-2.308 -3.648,-3.132 1.524,-16.444 3.324,-27.68 5.156,-35.34 z m 3.32,-0.768 c -0.608,-0.116 -1.132,-0.504 -1.56,-1.152 -0.904,-1.364 -1.16,-3.596 -0.676,-5.816 0.696,-3.172 2.824,-5.692 4.704,-5.692 0.128,0 0.252,0.012 0.376,0.036 0.608,0.116 1.132,0.504 1.56,1.152 0.904,1.368 1.16,3.596 0.672,5.812 -0.744,3.388 -3.128,6.012 -5.076,5.66 z m 1.96,-15.264 c 0.036,-0.02 0.068,-0.04 0.104,-0.06 -0.004,0.016 -0.008,0.032 -0.008,0.048 -0.032,0.004 -0.064,0.008 -0.096,0.012 z m -17.456,-7.728 c -14.2,2.544 -25.812,8.78 -34.836,18.428 h -16.828 l -1.584,1.584 v 38.072 l 1.584,1.584 h 33.164 l 1.584,-1.584 v -26.9 c 2.164,-1.272 4.468,-2.624 6.944,-4.084 1.94,-1.14 4.048,-2.088 6.288,-3.092 l 0.436,-0.196 c -3.74,8.892 -3.376,21.004 -1.648,32.088 l -0.004,-0.004 0.1,42.676 h -63.676 v -86.676 l -1.848,-1.848 h -45.98 l -1.848,1.848 V 268.21 H 12.12 V 62.45 h 177.012 v 97.632 l -0.332,-0.004 0.22,1.52 c 0.164,1.148 2.928,5.364 4.92,8.04 z m -72.168,13.744 v 84.032 H 79.484 v -84.032 z m 41.004,-159.78 c 0.604,-0.088 1.124,-0.464 1.392,-1.012 l 4.7,-9.528 4.708,9.532 c 0.264,0.544 0.784,0.924 1.388,1.008 l 10.516,1.528 -7.612,7.416 c -0.432,0.424 -0.632,1.036 -0.532,1.636 l 1.796,10.476 -9.412,-4.944 c -0.268,-0.14 -0.564,-0.212 -0.86,-0.212 -0.296,0 -0.588,0.072 -0.86,0.212 l -9.408,4.944 1.796,-10.476 c 0.1,-0.6 -0.1,-1.212 -0.532,-1.636 l -7.612,-7.416 z m 14.088,24.04 h -15.992 l 7.996,-4.2 z m -30.46,-22.476 c 0.148,-0.144 0.204,-0.34 0.296,-0.516 0.092,0.176 0.148,0.372 0.296,0.516 l 9.596,9.352 -2.252,13.12 h -15.28 l -2.252,-13.12 z m -27.972,-1.564 c 0.604,-0.088 1.124,-0.464 1.388,-1.008 l 4.708,-9.532 4.7,9.528 c 0.268,0.544 0.788,0.924 1.392,1.012 l 10.516,1.528 -7.612,7.416 c -0.432,0.424 -0.632,1.036 -0.532,1.636 l 1.796,10.476 -9.408,-4.944 c -0.54,-0.284 -1.18,-0.284 -1.716,0 l -9.408,4.944 1.796,-10.476 c 0.1,-0.6 -0.1,-1.212 -0.536,-1.636 l -7.612,-7.416 z m 14.092,24.04 h -15.988 l 7.996,-4.2 z M 102.068,25.166 c 0.148,-0.144 0.204,-0.336 0.292,-0.516 0.092,0.176 0.148,0.372 0.296,0.516 l 9.596,9.352 L 110,47.638 H 94.716 L 92.468,34.518 Z M 74.096,23.602 C 74.7,23.514 75.22,23.138 75.488,22.59 l 4.7,-9.528 4.708,9.532 c 0.268,0.544 0.784,0.924 1.388,1.008 L 96.8,25.13 89.188,32.546 c -0.432,0.424 -0.632,1.036 -0.532,1.636 l 1.796,10.476 -9.412,-4.944 c -0.268,-0.14 -0.564,-0.212 -0.86,-0.212 -0.296,0 -0.588,0.072 -0.86,0.212 l -9.408,4.944 1.796,-10.476 c 0.1,-0.6 -0.1,-1.212 -0.532,-1.636 L 63.564,25.13 Z m 14.088,24.04 H 72.196 l 7.996,-4.2 z M 57.724,25.166 c 0.148,-0.144 0.204,-0.34 0.296,-0.516 0.092,0.176 0.148,0.372 0.296,0.516 l 9.596,9.352 -2.252,13.12 H 50.38 L 48.128,34.518 Z M 19.236,25.134 29.752,23.606 c 0.604,-0.088 1.12,-0.464 1.388,-1.008 l 4.708,-9.532 4.7,9.528 c 0.268,0.544 0.788,0.924 1.392,1.012 l 10.516,1.528 -7.612,7.416 c -0.432,0.424 -0.632,1.036 -0.532,1.636 L 46.108,44.662 36.7,39.718 c -0.268,-0.14 -0.564,-0.212 -0.86,-0.212 -0.296,0 -0.588,0.072 -0.86,0.212 l -9.408,4.944 1.796,-10.476 c 0.1,-0.6 -0.1,-1.212 -0.536,-1.636 z M 43.848,47.638 H 27.856 l 7.996,-4.2 z M 6.036,58.754 V 51.338 H 195.22 v 7.416 H 6.036 Z M 197.56,278.326 H 3.696 v -6.06 H 197.56 Z m 13.468,1.488 h -9.776 v -9.396 l -1.848,-1.848 h -6.576 v -25.868 c 1.9,6.708 3.688,11.276 4.04,11.608 l 1.5,1.416 0.66,-1.956 c 0.1,-0.3 0.128,-0.592 0.368,-4.46 0.416,-6.656 0.872,-12.668 1.356,-18.16 0.804,0.572 1.568,1.204 2.196,2.012 0.2,0.26 0.472,0.812 0.78,1.408 1.048,2.036 1.644,3.1 2.656,3.1 0.484,0 0.912,-0.276 1.148,-0.736 1.472,-2.86 3.736,-4.356 5.94,-3.884 0.276,0.056 0.508,0.216 0.756,0.336 0.108,5.724 -0.004,11.608 -0.4,17.724 -0.664,10.248 -1.332,19.484 -2.8,28.704 z m 24.904,-0.964 h -22.08 c 0.512,-3.428 0.904,-6.88 1.252,-10.368 6.676,-0.824 13.896,-0.72 21.152,0.304 -0.036,3.36 -0.104,6.72 -0.324,10.064 z m -0.02,-24.616 c 0.292,4.3 0.412,8.632 0.4,12.964 -7.204,-0.996 -14.376,-1.108 -21.044,-0.324 0.472,-5.016 0.836,-10.144 1.188,-15.568 6.052,-1.128 12.62,-1.232 19.156,-0.264 0.128,1.12 0.232,2.192 0.3,3.192 z m -0.516,-4.812 c -6.42,-0.896 -12.872,-0.8 -18.864,0.272 0.268,-4.632 0.404,-9.156 0.384,-13.564 5.06,-1.304 10.52,-1.616 15.908,-0.916 1.128,5.2 2.02,10.028 2.572,14.208 z M 232.46,233.59 c -5.276,-0.62 -10.6,-0.308 -15.576,0.928 -0.052,-4.028 -0.2,-7.984 -0.5,-11.848 4.272,-0.824 8.836,-0.948 13.384,-0.348 0.972,3.832 1.88,7.62 2.692,11.268 z m -3.104,-12.904 c -4.456,-0.532 -8.924,-0.392 -13.124,0.404 -0.26,-3.028 -0.608,-6.008 -1.024,-8.948 0.044,-0.008 0.088,-0.008 0.132,-0.02 3.644,-1.22 7.572,-1.596 11.432,-1.164 0.88,3.212 1.752,6.476 2.584,9.728 z m -5.864,-21.304 c 0.928,3.192 1.88,6.528 2.828,9.948 -3.832,-0.34 -7.708,0.056 -11.328,1.244 -0.52,-3.432 -1.156,-6.804 -1.888,-10.128 3.312,-1.136 6.848,-1.524 10.272,-1.036 0.044,0.008 0.076,-0.028 0.116,-0.028 z m -0.46,-1.58 c -3.44,-0.404 -6.952,-0.02 -10.276,1.096 -0.176,-0.752 -0.324,-1.516 -0.508,-2.264 -0.112,-0.452 -0.248,-1.076 -0.396,-1.788 2.388,-1.024 4.452,-3.744 5.232,-7.308 0.068,-0.308 0.08,-0.612 0.124,-0.92 0.368,0.124 0.732,0.292 1.112,0.344 0.296,0.04 0.588,0.06 0.88,0.06 0.196,0 0.372,-0.072 0.564,-0.088 1.004,3.248 2.108,6.904 3.268,10.868 z M 221.14,183.75 c -0.852,0.656 -1.816,0.684 -2.464,0.596 -0.468,-0.064 -0.92,-0.236 -1.36,-0.452 -0.124,-1.588 -0.532,-3.052 -1.28,-4.188 -0.528,-0.804 -1.216,-1.336 -1.96,-1.74 0.124,-0.868 0.476,-1.64 1.144,-2.156 0.636,-0.492 1.34,-0.632 1.928,-0.632 0.188,0 0.368,0.016 0.528,0.036 1.32,0.18 2.608,0.984 3.528,2.212 1.644,2.192 1.616,5.028 -0.064,6.324 z m 36.328,47.268 c -0.128,-0.22 -0.264,-0.452 -0.4,-0.692 -14.18,-24.408 -24.676,-40.352 -32.088,-48.7 0.18,-1.724 -0.26,-3.588 -1.328,-5.248 0.636,0.06 1.276,0.116 1.912,0.212 16.364,12.58 27.62,30.528 32.112,51.004 -0.04,1.14 -0.096,2.28 -0.208,3.424 z m -6.2,-30.62 c 3.756,7.132 5.856,14.532 6.332,22.1 -4.996,-18.068 -15.412,-33.868 -29.868,-45.5 0.06,0.012 0.12,0.02 0.18,0.036 10.484,5.856 18.164,13.5 23.356,23.364 z m 29.04,-24.096 c -10.212,-1.356 -27.3,-3.624 -36.944,-3.872 -5.808,-0.144 -11.556,0.42 -16.912,1.048 l -2.356,0.28 c -1.124,-0.108 -2.248,-0.18 -3.376,-0.212 -0.848,-0.488 -1.752,-0.828 -2.688,-0.956 -0.1,-0.012 -0.192,-0.004 -0.292,-0.012 1.924,-1.94 3.872,-3.856 5.86,-5.728 17.456,-4.232 35.684,-3.168 52.2,3.028 3.036,1.996 5.848,4.308 8.412,6.936 -1.136,-0.144 -2.48,-0.324 -3.904,-0.512 z"
   id="path1582" />

		</g>

	</g>

</g>
  <g
     id="g1590"
     transform="matrix(0.4645143,0,0,0.4645143,28.007497,18.738749)">
</g>
  <g
     id="g1592"
     transform="matrix(0.4645143,0,0,0.4645143,28.007497,18.738749)">
</g>
  <g
     id="g1594"
     transform="matrix(0.4645143,0,0,0.4645143,28.007497,18.738749)">
</g>
  <g
     id="g1596"
     transform="matrix(0.4645143,0,0,0.4645143,28.007497,18.738749)">
</g>
  <g
     id="g1598"
     transform="matrix(0.4645143,0,0,0.4645143,28.007497,18.738749)">
</g>
  <g
     id="g1600"
     transform="matrix(0.4645143,0,0,0.4645143,28.007497,18.738749)">
</g>
  <g
     id="g1602"
     transform="matrix(0.4645143,0,0,0.4645143,28.007497,18.738749)">
</g>
  <g
     id="g1604"
     transform="matrix(0.4645143,0,0,0.4645143,28.007497,18.738749)">
</g>
  <g
     id="g1606"
     transform="matrix(0.4645143,0,0,0.4645143,28.007497,18.738749)">
</g>
  <g
     id="g1608"
     transform="matrix(0.4645143,0,0,0.4645143,28.007497,18.738749)">
</g>
  <g
     id="g1610"
     transform="matrix(0.4645143,0,0,0.4645143,28.007497,18.738749)">
</g>
  <g
     id="g1612"
     transform="matrix(0.4645143,0,0,0.4645143,28.007497,18.738749)">
</g>
  <g
     id="g1614"
     transform="matrix(0.4645143,0,0,0.4645143,28.007497,18.738749)">
</g>
  <g
     id="g1616"
     transform="matrix(0.4645143,0,0,0.4645143,28.007497,18.738749)">
</g>
  <g
     id="g1618"
     transform="matrix(0.4645143,0,0,0.4645143,28.007497,18.738749)">
</g>
</svg>
