<?xml version="1.0" encoding="iso-8859-1"?>
<!-- Generator: Adobe Illustrator 19.0.0, SVG Export Plug-In . SVG Version: 6.00 Build 0)  -->
<svg version="1.1" id="Layer_1" xmlns="http://www.w3.org/2000/svg" xmlns:xlink="http://www.w3.org/1999/xlink" x="0px" y="0px"
	 viewBox="0 0 512 512" style="enable-background:new 0 0 512 512;" xml:space="preserve">
<g>
	<g>
		<path d="M503.551,440.98h-44.672l1.99-59.521c0.028-0.873-0.077-1.745-0.315-2.584l-19.531-68.95
			c-1.03-3.637-4.35-6.146-8.129-6.146c-2.781,0-5.307,1.368-6.861,3.536l-24.077-84.157c-1.038-3.626-4.352-6.125-8.124-6.125
			c-0.003,0-0.008,0-0.011,0c-3.776,0.004-7.089,2.513-8.118,6.147L374.3,263.429l-11.402-40.251
			c-1.03-3.638-4.35-6.147-8.129-6.147c-0.011,0-0.023,0-0.034,0c-3.791,0.016-7.11,2.555-8.114,6.212l-5.549,20.203l-2.457-90.241
			c-0.114-4.173-3.257-7.636-7.397-8.154c-4.146-0.523-8.041,2.065-9.177,6.081L310.8,190.825l-9.393-103.317
			c-0.392-4.315-3.985-7.634-8.317-7.683c-4.31-0.083-8.001,3.186-8.491,7.491l-17.232,151.033l-3.059-16.599
			c-0.738-4.008-4.234-6.918-8.308-6.918c-4.076,0-7.57,2.91-8.31,6.918l-3.054,16.58L227.403,87.316
			c-0.488-4.272-4.104-7.492-8.393-7.492c-0.033,0-0.066,0-0.098,0c-4.333,0.05-7.925,3.368-8.317,7.683l-9.392,103.317
			l-11.24-39.693c-1.138-4.016-5.038-6.604-9.177-6.081c-4.141,0.517-7.284,3.981-7.398,8.154l-2.458,90.243l-5.549-20.205
			c-1.004-3.657-4.322-6.196-8.114-6.212c-0.011,0-0.023,0-0.034,0c-3.779,0-7.099,2.509-8.129,6.147l-11.402,40.251l-11.401-40.251
			c-1.03-3.633-4.343-6.142-8.119-6.147c-0.003,0-0.007,0-0.011,0c-3.771,0-7.086,2.499-8.124,6.125l-24.077,84.157
			c-1.554-2.17-4.079-3.536-6.862-3.536c-3.78,0-7.1,2.51-8.129,6.147l-19.531,68.95c-0.238,0.84-0.344,1.712-0.314,2.584
			l1.991,59.521H8.449c-4.666,0-8.449,3.783-8.449,8.449c0,4.666,3.783,8.45,8.449,8.45h495.102c4.667,0,8.449-3.783,8.449-8.449
			C512,444.763,508.218,440.98,503.551,440.98z M168.313,440.978H70.03l-1.966-58.767l11.043-38.984l11.402,40.251
			c1.031,3.637,4.35,6.147,8.129,6.147c3.78,0,7.1-2.51,8.129-6.147l11.402-40.251l11.401,40.251
			c1.031,3.637,4.35,6.147,8.129,6.147c3.78,0,7.1-2.51,8.129-6.147l11.402-40.251l11.082,39.122V440.978z M168.789,322.025
			l-3.427-12.1c-1.031-3.637-4.35-6.147-8.129-6.147s-7.1,2.51-8.129,6.147l-11.402,40.251l-11.401-40.251
			c-1.031-3.637-4.35-6.147-8.129-6.147c-3.779,0-7.1,2.51-8.129,6.147L98.64,350.176l-3.659-12.918l23.148-80.918l11.441,40.393
			c1.031,3.637,4.35,6.147,8.129,6.147c3.779,0,7.1-2.51,8.129-6.147l11.277-39.808l12.242,44.566L168.789,322.025z
			 M211.403,419.473v21.506h-26.19v-37.232l15.871-56.013l14.172,50.055C215.255,397.789,211.403,418.96,211.403,419.473z
			 M209.214,314.427c-1.03-3.637-4.35-6.147-8.129-6.148c-3.779,0-7.099,2.51-8.129,6.147l-7.745,27.333v-2.064l3.562-130.739
			l8.588,30.327c1.11,3.919,4.856,6.498,8.911,6.111c4.056-0.376,7.264-3.593,7.633-7.648l6.055-66.605l14.17,124.2l-11.952,64.87
			L209.214,314.427z M260.782,440.98h-10.139v-7.323c0-2.795,2.275-5.07,5.07-5.07c2.796,0,5.07,2.275,5.07,5.07V440.98z
			 M283.694,440.98h-6.014v-7.323c0-12.113-9.855-21.968-21.968-21.968s-21.968,9.855-21.968,21.968v7.323h-5.444v-20.734
			l27.697-150.331l27.697,150.331V440.98z M277.866,295.359l14.174-124.218l6.055,66.605c0.368,4.056,3.578,7.271,7.633,7.648
			c4.06,0.381,7.803-2.193,8.91-6.11l8.588-30.327l3.561,130.742v2.063l-7.744-27.332c-1.03-3.637-4.35-6.147-8.13-6.147
			c-3.779,0-7.1,2.511-8.128,6.148l-12.967,45.795L277.866,295.359z M326.789,440.978h-26.195v-21.506
			c-0.001-0.513-3.852-21.675-3.852-21.675l14.176-50.062l15.871,56.013V440.978z M342.651,301.492l12.242-44.568l11.277,39.808
			c1.03,3.637,4.35,6.147,8.129,6.147s7.1-2.51,8.129-6.147l11.443-40.393l23.149,80.917l-3.659,12.917l-11.402-40.25
			c-1.03-3.637-4.35-6.147-8.129-6.147c-3.78,0-7.1,2.51-8.129,6.147l-11.402,40.251l-11.402-40.251
			c-1.03-3.637-4.35-6.147-8.129-6.147s-7.1,2.51-8.129,6.147l-3.428,12.102L342.651,301.492z M441.97,440.979h-98.283v-58.63
			l11.082-39.122l11.402,40.251c1.03,3.637,4.35,6.147,8.129,6.147c3.78,0,7.1-2.51,8.129-6.147l11.402-40.251l11.402,40.251
			c1.03,3.637,4.35,6.147,8.129,6.147s7.1-2.51,8.129-6.147l11.401-40.25l11.041,38.983L441.97,440.979z"/>
	</g>
</g>
<g>
	<g>
		<path d="M503.551,473.084H8.449c-4.666,0-8.449,3.783-8.449,8.449s3.783,8.449,8.449,8.449h495.102
			c4.667,0,8.449-3.783,8.449-8.449S508.217,473.084,503.551,473.084z"/>
	</g>
</g>
<g>
	<g>
		<path d="M97.324,22.017c-35.872,0-65.057,29.185-65.057,65.057c0,35.872,29.184,65.057,65.057,65.057
			c35.872,0,65.057-29.184,65.057-65.057C162.381,51.201,133.196,22.017,97.324,22.017z M97.324,135.233
			c-26.555,0-48.159-21.603-48.159-48.159c0-26.555,21.603-48.158,48.159-48.158c26.554,0,48.159,21.603,48.159,48.158
			C145.483,113.63,123.88,135.233,97.324,135.233z"/>
	</g>
</g>
<g>
	<g>
		<circle cx="303.599" cy="269.475" r="8.449"/>
	</g>
</g>
<g>
	<g>
		<circle cx="208.359" cy="269.306" r="8.449"/>
	</g>
</g>
<g>
	<g>
		<circle cx="83.244" cy="406.917" r="8.449"/>
	</g>
</g>
<g>
	<g>
		<circle cx="118.166" cy="406.917" r="8.449"/>
	</g>
</g>
<g>
	<g>
		<circle cx="153.089" cy="406.917" r="8.449"/>
	</g>
</g>
<g>
	<g>
		<circle cx="358.902" cy="406.917" r="8.449"/>
	</g>
</g>
<g>
	<g>
		<circle cx="393.825" cy="406.917" r="8.449"/>
	</g>
</g>
<g>
	<g>
		<circle cx="428.749" cy="406.917" r="8.449"/>
	</g>
</g>
<g>
</g>
<g>
</g>
<g>
</g>
<g>
</g>
<g>
</g>
<g>
</g>
<g>
</g>
<g>
</g>
<g>
</g>
<g>
</g>
<g>
</g>
<g>
</g>
<g>
</g>
<g>
</g>
<g>
</g>
</svg>
