<?xml version="1.0" encoding="UTF-8" standalone="no"?>
<!-- Generator: Adobe Illustrator 18.0.0, SVG Export Plug-In . SVG Version: 6.00 Build 0)  -->

<svg
   version="1.1"
   id="Capa_1"
   x="0px"
   y="0px"
   viewBox="0 0 297.5 297.5"
   style="enable-background:new 0 0 297.5 297.5;"
   xml:space="preserve"
   sodipodi:docname="ice_cream.svg"
   inkscape:version="1.2.1 (9c6d41e410, 2022-07-14)"
   xmlns:inkscape="http://www.inkscape.org/namespaces/inkscape"
   xmlns:sodipodi="http://sodipodi.sourceforge.net/DTD/sodipodi-0.dtd"
   xmlns="http://www.w3.org/2000/svg"
   xmlns:svg="http://www.w3.org/2000/svg"><defs
   id="defs1276">
		
		
	</defs><sodipodi:namedview
   id="namedview1274"
   pagecolor="#ffffff"
   bordercolor="#000000"
   borderopacity="0.25"
   inkscape:showpageshadow="2"
   inkscape:pageopacity="0.0"
   inkscape:pagecheckerboard="0"
   inkscape:deskcolor="#d1d1d1"
   showgrid="false"
   inkscape:zoom="2.8134454"
   inkscape:cx="148.92772"
   inkscape:cy="148.92772"
   inkscape:window-width="1920"
   inkscape:window-height="1017"
   inkscape:window-x="-8"
   inkscape:window-y="-8"
   inkscape:window-maximized="1"
   inkscape:current-layer="g1236" />
<g
   id="g1241">
	<g
   id="g1236">
			
			
			
			
			<path
   d="m 297.25,91.41 c 0,17.23 -10.97,31.94 -26.29,37.53 l -48.92,155.27 c -1.32,4.18 -5.19,7.02 -9.57,7.02 -4.38,0 -8.26,-2.84 -9.57,-7.02 L 153.97,128.94 c -15.32,-5.59 -26.29,-20.3 -26.29,-37.53 0,-18.82 13.08,-34.64 30.63,-38.84 4.28,-26.03 26.94,-45.95 54.16,-45.95 27.22,0 49.88,19.92 54.15,45.95 17.55,4.2 30.63,20.02 30.63,38.84 z m -20.06,0 c 0,-10.96 -8.92,-19.87 -19.87,-19.87 -5.54,0 -10.04,-4.49 -10.04,-10.03 0,-19.2 -15.61,-34.82 -34.81,-34.82 -19.2,0 -34.82,15.62 -34.82,34.82 0,5.54 -4.49,10.03 -10.03,10.03 -10.96,0 -19.87,8.91 -19.87,19.87 0,10.95 8.91,19.86 19.87,19.86 5.68,0 11.11,-2.46 14.89,-6.74 0.95,-1.08 2.11,-1.93 3.39,-2.51 1.28,-0.58 2.69,-0.89 4.13,-0.89 2.88,0 5.63,1.24 7.53,3.4 3.78,4.29 9.21,6.74 14.91,6.74 5.69,0 11.13,-2.45 14.9,-6.74 1.91,-2.16 4.65,-3.4 7.53,-3.4 2.88,0 5.62,1.24 7.53,3.4 3.78,4.28 9.21,6.74 14.89,6.74 10.95,0 19.87,-8.91 19.87,-19.86 z m -64.72,156.4 36.95,-117.27 c -5.2,-1.05 -10.14,-3.13 -14.52,-6.11 -6.56,4.46 -14.36,6.91 -22.43,6.91 -8.07,0 -15.88,-2.45 -22.44,-6.91 -4.38,2.98 -9.32,5.06 -14.51,6.11 z"
   id="path1232" />
			<path
   d="m 119.66,65.97 v 149 c 0,5.54 -4.5,10.04 -10.04,10.04 H 86.54 v 39.63 c 0,14.66 -11.92,26.59 -26.59,26.59 -14.66,0 -26.59,-11.93 -26.59,-26.59 V 225.01 H 10.29 c -5.54,0 -10.04,-4.5 -10.04,-10.04 v -149 c 0,-32.92 26.78,-59.7 59.7,-59.7 32.92,0 59.71,26.78 59.71,59.7 z M 99.59,204.94 V 65.97 C 99.59,44.12 81.81,26.34 59.95,26.34 38.1,26.34 20.32,44.12 20.32,65.97 v 138.97 z m -33.11,59.7 V 225.01 H 53.43 v 39.63 c 0,3.6 2.93,6.52 6.52,6.52 3.6,0 6.53,-2.92 6.53,-6.52 z"
   id="path1234" />
		</g><g
   id="g1238">
		</g>
</g>
<g
   id="g1243">
</g>
<g
   id="g1245">
</g>
<g
   id="g1247">
</g>
<g
   id="g1249">
</g>
<g
   id="g1251">
</g>
<g
   id="g1253">
</g>
<g
   id="g1255">
</g>
<g
   id="g1257">
</g>
<g
   id="g1259">
</g>
<g
   id="g1261">
</g>
<g
   id="g1263">
</g>
<g
   id="g1265">
</g>
<g
   id="g1267">
</g>
<g
   id="g1269">
</g>
<g
   id="g1271">
</g>
</svg>
