<?xml version="1.0" encoding="UTF-8" standalone="no"?>
<svg
   width="20px"
   height="20px"
   viewBox="0 0 20 20"
   version="1.1"
   id="svg1633"
   sodipodi:docname="ice_cream.svg"
   inkscape:version="1.2.1 (9c6d41e410, 2022-07-14)"
   xmlns:inkscape="http://www.inkscape.org/namespaces/inkscape"
   xmlns:sodipodi="http://sodipodi.sourceforge.net/DTD/sodipodi-0.dtd"
   xmlns="http://www.w3.org/2000/svg"
   xmlns:svg="http://www.w3.org/2000/svg">
  <defs
     id="defs1637" />
  <sodipodi:namedview
     id="namedview1635"
     pagecolor="#ffffff"
     bordercolor="#666666"
     borderopacity="1.0"
     inkscape:showpageshadow="2"
     inkscape:pageopacity="0.0"
     inkscape:pagecheckerboard="0"
     inkscape:deskcolor="#d1d1d1"
     showgrid="false"
     inkscape:zoom="22.627417"
     inkscape:cx="12.639534"
     inkscape:cy="11.402097"
     inkscape:window-width="1920"
     inkscape:window-height="1017"
     inkscape:window-x="-8"
     inkscape:window-y="-8"
     inkscape:window-maximized="1"
     inkscape:current-layer="svg1633" />
  <g
     id="g10031"
     transform="matrix(0.05090323,0,0,0.05090323,2.02278,3.81086)" />
  <g
     id="g10033"
     transform="matrix(0.05090323,0,0,0.05090323,2.02278,3.81086)" />
  <g
     id="g10035"
     transform="matrix(0.05090323,0,0,0.05090323,2.02278,3.81086)" />
  <g
     id="g10037"
     transform="matrix(0.05090323,0,0,0.05090323,2.02278,3.81086)" />
  <g
     id="g10039"
     transform="matrix(0.05090323,0,0,0.05090323,2.02278,3.81086)" />
  <g
     id="g10041"
     transform="matrix(0.05090323,0,0,0.05090323,2.02278,3.81086)" />
  <g
     id="g10043"
     transform="matrix(0.05090323,0,0,0.05090323,2.02278,3.81086)" />
  <g
     id="g10045"
     transform="matrix(0.05090323,0,0,0.05090323,2.02278,3.81086)" />
  <g
     id="g10047"
     transform="matrix(0.05090323,0,0,0.05090323,2.02278,3.81086)" />
  <g
     id="g10049"
     transform="matrix(0.05090323,0,0,0.05090323,2.02278,3.81086)" />
  <g
     id="g10051"
     transform="matrix(0.05090323,0,0,0.05090323,2.02278,3.81086)" />
  <g
     id="g10053"
     transform="matrix(0.05090323,0,0,0.05090323,2.02278,3.81086)" />
  <g
     id="g10055"
     transform="matrix(0.05090323,0,0,0.05090323,2.02278,3.81086)" />
  <g
     id="g10057"
     transform="matrix(0.05090323,0,0,0.05090323,2.02278,3.81086)" />
  <g
     id="g10059"
     transform="matrix(0.05090323,0,0,0.05090323,2.02278,3.81086)" />
  <path
     style="fill:#ffa800;stroke-width:0.0632466"
     d="M 6.9709539,5.0285702 V 13.817947 H 1.9573952 V 5.0285702 c 0,-1.3819326 1.1245298,-2.5064624 2.5064624,-2.5064624 1.3825665,0 2.5070963,1.1245298 2.5070963,2.5064624 z"
     id="path1224" />
  <path
     style="fill:#d5c295;stroke-width:0.0632466"
     d="m 4.8768641,15.087304 v 2.506462 c 0,0.227688 -0.1853181,0.412373 -0.4130065,0.412373 -0.2270544,0 -0.4123609,-0.184685 -0.4123609,-0.412373 v -2.506462 z"
     id="path1226" />
  <path
     style="fill:#d5c295;stroke-width:0.0632466"
     d="M 16.447189,9.1124032 14.11023,16.529334 11.773261,9.1124032 c 0.328254,-0.066449 0.640695,-0.1979624 0.917715,-0.3864387 0.414897,0.2820805 0.908852,0.4370387 1.419254,0.4370387 0.510392,0 1.003724,-0.1549582 1.418621,-0.4370387 0.27702,0.1884763 0.589449,0.3200247 0.918338,0.3864387 z"
     id="path1228" />
  <path
     style="fill:#1abc9c;stroke-width:0.0632466"
     d="m 16.946838,5.3808567 c 0.692551,0 1.256712,0.563527 1.256712,1.2567122 0,0.6925511 -0.564161,1.2560781 -1.256712,1.2560781 -0.359237,0 -0.702672,-0.1555921 -0.941748,-0.4262846 -0.120794,-0.1366201 -0.294091,-0.2150443 -0.476239,-0.2150443 -0.182148,0 -0.355445,0.078424 -0.476251,0.2150443 -0.238442,0.2713265 -0.582499,0.4262846 -0.94237,0.4262846 -0.360504,0 -0.703939,-0.1549581 -0.943015,-0.4262846 -0.12016,-0.1366201 -0.294091,-0.2150443 -0.476239,-0.2150443 -0.0911,0 -0.180258,0.019606 -0.261206,0.056235 -0.08101,0.036629 -0.154325,0.090399 -0.214411,0.1587502 -0.239076,0.2706926 -0.582499,0.4262847 -0.941736,0.4262847 -0.693185,0 -1.256712,-0.563527 -1.256712,-1.2560781 0,-0.6931852 0.563527,-1.2567122 1.256712,-1.2567122 0.350385,0 0.634356,-0.2839824 0.634356,-0.634367 0,-1.2143302 0.98791,-2.20224 2.202251,-2.20224 1.214331,0 2.201607,0.9879098 2.201607,2.20224 0,0.3503846 0.284616,0.634367 0.635001,0.634367 z"
     id="path1230" />
  <path
     d="m 19.472272,6.6375689 c 0,1.089732 -0.693819,2.0200915 -1.662757,2.3736342 l -3.094021,9.8203029 c -0.08347,0.264365 -0.328243,0.443989 -0.605264,0.443989 -0.27702,0 -0.522424,-0.179624 -0.605274,-0.443989 L 10.4103,9.0112031 C 9.4413623,8.6576604 8.7475549,7.7273009 8.7475549,6.6375689 c 0,-1.1903099 0.8272576,-2.1908638 1.9372411,-2.4564964 0.270693,-1.6463088 1.70386,-2.9061908 3.425434,-2.9061908 1.721564,0 3.154742,1.259882 3.424801,2.9061908 1.109972,0.2656326 1.937241,1.2661865 1.937241,2.4564964 z m -1.268722,0 c 0,-0.6931852 -0.564161,-1.2567122 -1.256712,-1.2567122 -0.350385,0 -0.635001,-0.2839824 -0.635001,-0.634367 0,-1.2143302 -0.987276,-2.20224 -2.201607,-2.20224 -1.214341,0 -2.202251,0.9879098 -2.202251,2.20224 0,0.3503846 -0.283971,0.634367 -0.634356,0.634367 -0.693185,0 -1.256712,0.563527 -1.256712,1.2567122 0,0.6925511 0.563527,1.2560781 1.256712,1.2560781 0.359237,0 0.70266,-0.1555921 0.941736,-0.4262846 0.06011,-0.068328 0.13345,-0.1220741 0.214411,-0.1587503 0.08101,-0.036747 0.170126,-0.056235 0.261206,-0.056235 0.182148,0 0.356079,0.078424 0.476239,0.2150443 0.239076,0.2713265 0.582511,0.4262846 0.943015,0.4262846 0.359871,0 0.703928,-0.1549581 0.94237,-0.4262846 0.120806,-0.1366201 0.294103,-0.2150443 0.476251,-0.2150443 0.182148,0 0.355445,0.078424 0.476239,0.2150443 0.239076,0.2706925 0.582511,0.4262846 0.941748,0.4262846 0.692551,0 1.256712,-0.563527 1.256712,-1.2560781 z M 14.11023,16.529334 16.447189,9.1124032 C 16.1183,9.0459539 15.805871,8.9144408 15.528851,8.7259645 15.113954,9.008045 14.620622,9.1630032 14.11023,9.1630032 c -0.510402,0 -1.004357,-0.1549582 -1.419254,-0.4370387 -0.27702,0.1884763 -0.589461,0.3200247 -0.917715,0.3864387 z"
     id="path1232"
     style="stroke-width:0.0632466" />
  <path
     d="m 8.2403102,5.0285702 v 9.4237438 c 0,0.350385 -0.2846046,0.63499 -0.6349893,0.63499 H 6.1455865 v 2.506462 c 0,0.927202 -0.7539052,1.681729 -1.6817289,1.681729 -0.9271898,0 -1.6817289,-0.754527 -1.6817289,-1.681729 V 15.087304 H 1.3230399 c -0.35039642,0 -0.63500103,-0.284605 -0.63500103,-0.63499 V 5.0285702 c 0,-2.0820796 1.69373913,-3.7758187 3.77581873,-3.7758187 2.0820796,0 3.7764526,1.6937391 3.7764526,3.7758187 z M 6.9709539,13.817947 V 5.0285702 c 0,-1.3819326 -1.1245298,-2.5064624 -2.5070963,-2.5064624 -1.3819326,0 -2.5064624,1.1245298 -2.5064624,2.5064624 V 13.817947 Z M 4.8768641,17.593766 V 15.087304 H 4.0514967 v 2.506462 c 0,0.227688 0.1853065,0.412373 0.4123609,0.412373 0.2276884,0 0.4130065,-0.184685 0.4130065,-0.412373 z"
     id="path1234"
     style="stroke-width:0.0632466" />
</svg>
