<?xml version="1.0" encoding="iso-8859-1"?>
<!-- Generator: Adobe Illustrator 18.0.0, SVG Export Plug-In . SVG Version: 6.00 Build 0)  -->
<!DOCTYPE svg PUBLIC "-//W3C//DTD SVG 1.1//EN" "http://www.w3.org/Graphics/SVG/1.1/DTD/svg11.dtd">
<svg version="1.1" id="Capa_1" xmlns="http://www.w3.org/2000/svg" xmlns:xlink="http://www.w3.org/1999/xlink" x="0px" y="0px"
	 viewBox="0 0 297.5 297.5" style="enable-background:new 0 0 297.5 297.5;" xml:space="preserve">
<g>
	<g id="XMLID_25_">
		<g>
			<path style="fill:#FFA800;" d="M99.59,65.97v138.97H20.32V65.97c0-21.85,17.78-39.63,39.63-39.63
				C81.81,26.34,99.59,44.12,99.59,65.97z"/>
			<path style="fill:#D5C295;" d="M66.48,225.01v39.63c0,3.6-2.93,6.52-6.53,6.52c-3.59,0-6.52-2.92-6.52-6.52v-39.63H66.48z"/>
			<path style="fill:#D5C295;" d="M249.42,130.54l-36.95,117.27l-36.95-117.27c5.19-1.05,10.13-3.13,14.51-6.11
				c6.56,4.46,14.37,6.91,22.44,6.91c8.07,0,15.87-2.45,22.43-6.91C239.28,127.41,244.22,129.49,249.42,130.54z"/>
			<path style="fill:#1ABC9C;" d="M257.32,71.54c10.95,0,19.87,8.91,19.87,19.87c0,10.95-8.92,19.86-19.87,19.86
				c-5.68,0-11.11-2.46-14.89-6.74c-1.91-2.16-4.65-3.4-7.53-3.4c-2.88,0-5.62,1.24-7.53,3.4c-3.77,4.29-9.21,6.74-14.9,6.74
				c-5.7,0-11.13-2.45-14.91-6.74c-1.9-2.16-4.65-3.4-7.53-3.4c-1.44,0-2.85,0.31-4.13,0.89c-1.28,0.58-2.44,1.43-3.39,2.51
				c-3.78,4.28-9.21,6.74-14.89,6.74c-10.96,0-19.87-8.91-19.87-19.86c0-10.96,8.91-19.87,19.87-19.87
				c5.54,0,10.03-4.49,10.03-10.03c0-19.2,15.62-34.82,34.82-34.82s34.81,15.62,34.81,34.82C247.28,67.05,251.78,71.54,257.32,71.54
				z"/>
			<path d="M297.25,91.41c0,17.23-10.97,31.94-26.29,37.53l-48.92,155.27c-1.32,4.18-5.19,7.02-9.57,7.02s-8.26-2.84-9.57-7.02
				l-48.93-155.27c-15.32-5.59-26.29-20.3-26.29-37.53c0-18.82,13.08-34.64,30.63-38.84c4.28-26.03,26.94-45.95,54.16-45.95
				s49.88,19.92,54.15,45.95C284.17,56.77,297.25,72.59,297.25,91.41z M277.19,91.41c0-10.96-8.92-19.87-19.87-19.87
				c-5.54,0-10.04-4.49-10.04-10.03c0-19.2-15.61-34.82-34.81-34.82s-34.82,15.62-34.82,34.82c0,5.54-4.49,10.03-10.03,10.03
				c-10.96,0-19.87,8.91-19.87,19.87c0,10.95,8.91,19.86,19.87,19.86c5.68,0,11.11-2.46,14.89-6.74c0.95-1.08,2.11-1.93,3.39-2.51
				c1.28-0.58,2.69-0.89,4.13-0.89c2.88,0,5.63,1.24,7.53,3.4c3.78,4.29,9.21,6.74,14.91,6.74c5.69,0,11.13-2.45,14.9-6.74
				c1.91-2.16,4.65-3.4,7.53-3.4c2.88,0,5.62,1.24,7.53,3.4c3.78,4.28,9.21,6.74,14.89,6.74
				C268.27,111.27,277.19,102.36,277.19,91.41z M212.47,247.81l36.95-117.27c-5.2-1.05-10.14-3.13-14.52-6.11
				c-6.56,4.46-14.36,6.91-22.43,6.91c-8.07,0-15.88-2.45-22.44-6.91c-4.38,2.98-9.32,5.06-14.51,6.11L212.47,247.81z"/>
			<path d="M119.66,65.97v149c0,5.54-4.5,10.04-10.04,10.04H86.54v39.63c0,14.66-11.92,26.59-26.59,26.59
				c-14.66,0-26.59-11.93-26.59-26.59v-39.63H10.29c-5.54,0-10.04-4.5-10.04-10.04v-149c0-32.92,26.78-59.7,59.7-59.7
				S119.66,33.05,119.66,65.97z M99.59,204.94V65.97c0-21.85-17.78-39.63-39.64-39.63c-21.85,0-39.63,17.78-39.63,39.63v138.97
				H99.59z M66.48,264.64v-39.63H53.43v39.63c0,3.6,2.93,6.52,6.52,6.52C63.55,271.16,66.48,268.24,66.48,264.64z"/>
		</g>
		<g>
		</g>
	</g>
</g>
<g>
</g>
<g>
</g>
<g>
</g>
<g>
</g>
<g>
</g>
<g>
</g>
<g>
</g>
<g>
</g>
<g>
</g>
<g>
</g>
<g>
</g>
<g>
</g>
<g>
</g>
<g>
</g>
<g>
</g>
</svg>
