<?xml version="1.0" encoding="UTF-8" standalone="no"?>
<svg
   version="1.1"
   id="Uploaded to svgrepo.com"
   x="0px"
   y="0px"
   width="32px"
   height="32px"
   viewBox="0 0 32 32"
   style="enable-background:new 0 0 32 32;"
   xml:space="preserve"
   sodipodi:docname="industrial.svg"
   inkscape:version="1.2.1 (9c6d41e410, 2022-07-14)"
   xmlns:inkscape="http://www.inkscape.org/namespaces/inkscape"
   xmlns:sodipodi="http://sodipodi.sourceforge.net/DTD/sodipodi-0.dtd"
   xmlns="http://www.w3.org/2000/svg"
   xmlns:svg="http://www.w3.org/2000/svg"><defs
   id="defs1503" /><sodipodi:namedview
   id="namedview1501"
   pagecolor="#ffffff"
   bordercolor="#666666"
   borderopacity="1.0"
   inkscape:showpageshadow="2"
   inkscape:pageopacity="0.0"
   inkscape:pagecheckerboard="0"
   inkscape:deskcolor="#d1d1d1"
   showgrid="false"
   inkscape:zoom="7.375"
   inkscape:cx="16.067797"
   inkscape:cy="16"
   inkscape:window-width="1920"
   inkscape:window-height="1027"
   inkscape:window-x="-8"
   inkscape:window-y="-8"
   inkscape:window-maximized="1"
   inkscape:current-layer="Uploaded to svgrepo.com" />
<style
   type="text/css"
   id="style1496">
	.linesandangles_een{fill:#111918;}
</style>
<path
   class="linesandangles_een"
   d="M27,18v-1h-2v1h-2v-1h-2v1h-1v-6h-1v-1h-2v1h-2v-1h-2v1h-1V6h-1V5H9v1H7V5H5v1H4v20h24v-8H27z   M6,8h4v4H6V8z M6,14h12v4H6V14z M11,24H6v-4h5V24z M26,24H13v-4h13V24z"
   id="path1498"
   style="fill:#000000" />
<rect
   style="fill:#000000;stroke:none;stroke-width:56.6929;stroke-linecap:round"
   id="rect1609"
   width="5.1525426"
   height="5.8305087"
   x="5.2881355"
   y="7.0508475" /><rect
   style="fill:#000000;stroke:none;stroke-width:56.6929;stroke-linecap:round"
   id="rect1611"
   width="13.016949"
   height="4.4745765"
   x="5.5593219"
   y="13.559322" /><rect
   style="fill:#000000;stroke:none;stroke-width:56.6929;stroke-linecap:round"
   id="rect1613"
   width="20.881355"
   height="5.4237289"
   x="5.5593219"
   y="19.118645" /><ellipse
   style="fill:#000000;stroke:none;stroke-width:56.6929;stroke-linecap:round"
   id="path1745"
   cx="14.169492"
   cy="3.118644"
   rx="5.3559322"
   ry="1.8983051" /><ellipse
   style="fill:#000000;stroke:none;stroke-width:56.6929;stroke-linecap:round"
   id="path1747"
   cx="19.661016"
   cy="2.8474576"
   rx="3.6610169"
   ry="1.4915254" /><ellipse
   style="fill:#000000;stroke:none;stroke-width:56.6929;stroke-linecap:round"
   id="path1749"
   cx="24.338984"
   cy="2.7118645"
   rx="2.2372882"
   ry="1.0847458" /></svg>
