<?xml version="1.0" encoding="UTF-8" standalone="no"?>
<!-- Generator: Adobe Illustrator 16.0.2, SVG Export Plug-In . SVG Version: 6.00 Build 0)  -->

<svg
   version="1.1"
   id="Layer_1"
   sodipodi:docname="maxheight_question.svg"
   inkscape:version="1.2 (dc2aedaf03, 2022-05-15)"
   inkscape:output_extension="org.inkscape.output.svg.inkscape"
   sodipodi:version="0.32"
   x="0px"
   y="0px"
   width="576px"
   height="576px"
   viewBox="0 0 576 576"
   enable-background="new 0 0 576 576"
   xml:space="preserve"
   xmlns:inkscape="http://www.inkscape.org/namespaces/inkscape"
   xmlns:sodipodi="http://sodipodi.sourceforge.net/DTD/sodipodi-0.dtd"
   xmlns="http://www.w3.org/2000/svg"
   xmlns:svg="http://www.w3.org/2000/svg">
<defs
   id="defs1485">
	<inkscape:perspective
   id="perspective2469"
   inkscape:persp3d-origin="288 : 192 : 1"
   sodipodi:type="inkscape:persp3d"
   inkscape:vp_x="0 : 288 : 1"
   inkscape:vp_y="0 : 1000 : 0"
   inkscape:vp_z="576 : 288 : 1" />
</defs>
<sodipodi:namedview
   id="base"
   inkscape:current-layer="Layer_1"
   inkscape:window-y="-8"
   inkscape:window-x="-8"
   inkscape:window-height="1027"
   inkscape:window-width="1920"
   inkscape:pageshadow="2"
   inkscape:pageopacity="0.0"
   objecttolerance="10.0"
   inkscape:cy="171.04997"
   borderopacity="1.0"
   showgrid="false"
   inkscape:cx="-54.590415"
   bordercolor="#666666"
   pagecolor="#ffffff"
   inkscape:zoom="0.54954702"
   guidetolerance="10.0"
   gridtolerance="10.0"
   inkscape:showpageshadow="2"
   inkscape:pagecheckerboard="0"
   inkscape:deskcolor="#d1d1d1"
   inkscape:window-maximized="1" />



<circle
   id="circle2450"
   fill="#FF0000"
   stroke="#FF0000"
   stroke-width="0.1764"
   stroke-linecap="round"
   stroke-linejoin="round"
   cx="287.057"
   cy="287.057"
   r="273.982" /><circle
   id="circle2452"
   fill="#FFFFFF"
   stroke="#FF0000"
   stroke-width="0.1764"
   stroke-linecap="round"
   stroke-linejoin="round"
   cx="287.057"
   cy="287.057"
   r="192.438" /><path
   d="M 212.14934,97.686357 278.05191,213.77472 342.83748,95.410127 Z"
   id="path2852"
   style="fill:#000000;fill-opacity:1;stroke:#000000;stroke-width:0.996464px;stroke-linecap:butt;stroke-linejoin:miter;stroke-opacity:1" /><path
   d="M 357.24998,476.88088 293.49564,359.59899 226.54208,476.75089 Z"
   id="path2852-1"
   style="fill:#000000;fill-opacity:1;stroke:#000000;stroke-width:0.996464px;stroke-linecap:butt;stroke-linejoin:miter;stroke-opacity:1" /><g
   transform="matrix(14.024709,0,0,14.024709,-107.50313,-40.606459)"
   id="text3793"
   style="font-style:normal;font-variant:normal;font-weight:normal;font-stretch:normal;font-size:8.67062px;line-height:100%;font-family:'Transport Heavy';-inkscape-font-specification:'Transport Heavy,';text-align:start;writing-mode:lr-tb;text-anchor:start;fill:#000000;fill-opacity:1;stroke:none;stroke-width:0.0713027"><path
     d="m 35.059516,25.829574 c 0.615295,-0.05362 1.06689,0.149597 1.354785,0.609654 0.581424,-0.615293 1.236236,-0.767706 1.964438,-0.45724 0.445944,0.2004 0.77335,0.499582 0.982219,0.897545 v 0.0508 c 0.01411,0.01129 0.01975,0.02258 0.01694,0.03387 0.01411,0.01129 0.01975,0.02258 0.01693,0.03387 l 0.101609,0.321762 v 0.0508 c 0.02257,0.129838 0.03386,0.242736 0.03387,0.338696 v 2.861983 h -0.287892 -0.06774 -0.08467 -0.220152 -0.06774 -0.287891 -0.0508 -0.203218 v -0.08467 -0.220152 -0.06774 -0.06774 -0.06774 -0.287892 -0.0508 -0.203218 -0.237087 -0.118544 -0.237087 -0.05081 -0.304826 -0.220153 -0.06774 -0.287892 -0.0508 -0.203218 c -0.02259,-0.08185 -0.03388,-0.149587 -0.03387,-0.203218 -0.01694,-0.03386 -0.02823,-0.06773 -0.03387,-0.101609 -0.04234,-0.0508 -0.07057,-0.101604 -0.08467,-0.152413 l -0.03387,-0.01694 -0.01693,-0.03387 c -0.08186,-0.08185 -0.155242,-0.143942 -0.220153,-0.186283 -0.460067,-0.06209 -0.787473,0.118548 -0.982219,0.541914 l -0.01693,0.118543 -0.01693,0.118544 v 2.743439 h -0.06774 -0.0508 -0.304827 -0.220152 -0.06774 -0.287892 -0.0508 -0.203217 v -0.08467 -0.0508 -0.220153 -0.06774 -0.06774 -0.06774 -0.05081 -0.06774 -0.304827 -0.06774 -0.06774 -0.05081 -0.06774 -0.304826 -0.06774 -0.06774 -0.06774 -0.06774 -0.05081 -0.220152 -0.169348 -0.220153 -0.169348 -0.05081 l -0.01693,-0.118543 -0.05081,-0.304827 c -0.121369,-0.217326 -0.285072,-0.364094 -0.491109,-0.440305 -0.375391,0.03105 -0.651992,0.2004 -0.829806,0.508044 -0.03387,0.124193 -0.05081,0.231447 -0.0508,0.321762 v 2.726504 h -0.287892 -0.06774 -0.08467 -0.220153 -0.06774 -0.287892 -0.0508 -0.203218 v -0.0508 -0.08467 -0.0508 -0.06774 -0.0508 -0.338697 -0.118543 -0.06774 -0.08467 -0.06774 -0.08467 -0.220152 -0.06774 -0.287891 -0.05081 -0.203217 -0.118544 -0.118544 -0.101609 -0.118543 -0.101609 -0.118544 -0.101609 -0.287892 -0.101608 -0.08467 -0.101609 -0.06774 -0.304826 -0.186283 -0.06774 -0.06774 -0.06774 -0.06774 -0.287892 -0.0508 -0.203218 h 0.287892 0.06774 0.08467 0.220153 0.06774 0.287892 0.135478 0.118544 v 0.304827 c 0.290712,-0.231437 0.601183,-0.372561 0.931414,-0.423371 z"
     id="path3819"
     style="stroke-width:0.0713027" /></g><text
   xml:space="preserve"
   style="font-size:140.757px;line-height:82.4747px;font-family:Arial;-inkscape-font-specification:Arial;letter-spacing:0px;word-spacing:0px;fill:#000000;stroke:#000000;stroke-width:0.999999px;stroke-linecap:butt;stroke-linejoin:miter;stroke-opacity:1"
   x="234.97438"
   y="336.58368"
   id="text2468"><tspan
     sodipodi:role="line"
     id="tspan2466"
     x="234.97438"
     y="336.58368"
     style="font-style:normal;font-variant:normal;font-weight:bold;font-stretch:normal;font-size:140.757px;font-family:Arial;-inkscape-font-specification:'Arial, Bold';font-variant-ligatures:normal;font-variant-caps:normal;font-variant-numeric:normal;font-variant-east-asian:normal;stroke-width:0.999999px;fill:#000000;stroke:#000000">?</tspan></text></svg>
