<?xml version="1.0" encoding="UTF-8"?>
<svg width="48.062" height="48.156" version="1.2" xmlns="http://www.w3.org/2000/svg" xmlns:cc="http://creativecommons.org/ns#" xmlns:dc="http://purl.org/dc/elements/1.1/" xmlns:rdf="http://www.w3.org/1999/02/22-rdf-syntax-ns#">
 <metadata>
  <rdf:RDF>
   <cc:Work rdf:about="">
    <dc:format>image/svg+xml</dc:format>
    <dc:type rdf:resource="http://purl.org/dc/dcmitype/StillImage"/>
   </cc:Work>
  </rdf:RDF>
 </metadata>
 <path d="m6.3592 24.034c0-9.7056 7.8681-17.575 17.577-17.575 9.7066 0 17.576 7.8681 17.576 17.575 0 9.7076-7.8681 17.576-17.576 17.576-9.7076-9.97e-4 -17.577-7.8681-17.577-17.576" fill="#fff"/>
 <g>
  <path d="m18.691 6.1313 5.0209 8.6802 4.9358-8.8504z" stroke="#000" stroke-width=".99646px"/>
  <path d="m18.776 42.469 5.0209-8.6802 4.9358 8.8504z" stroke="#000" stroke-width=".99646px"/>
  <path d="m44.82 24.08c0 11.499-9.3041 20.821-20.781 20.821-11.477 0-20.781-9.322-20.781-20.821s9.3041-20.821 20.781-20.821c11.477 0 20.781 9.322 20.781 20.821z" fill="none" stroke="#e31409" stroke-linecap="square" stroke-width="6.5076"/>
 </g>
 <g transform="translate(-.03125)">
  <path d="m35.06 25.83c0.6153-0.05362 1.0669 0.1496 1.3548 0.60965 0.58142-0.61529 1.2362-0.76771 1.9644-0.45724 0.44594 0.2004 0.77335 0.49958 0.98222 0.89754v0.0508c0.01411 0.01129 0.01975 0.02258 0.01694 0.03387 0.01411 0.01129 0.01975 0.02258 0.01693 0.03387l0.10161 0.32176v0.0508c0.02257 0.12984 0.03386 0.24274 0.03387 0.3387v2.862h-1.2701v-2.8281c-0.02259-0.08185-0.03388-0.14959-0.03387-0.20322-0.01694-0.03386-0.02823-0.06773-0.03387-0.10161-0.04234-0.0508-0.07057-0.1016-0.08467-0.15241l-0.03387-0.01694-0.01693-0.03387c-0.08186-0.08185-0.15524-0.14394-0.22015-0.18628-0.46007-0.06209-0.78747 0.11855-0.98222 0.54191l-0.01693 0.11854-0.01693 0.11854v2.7434h-1.2532v-2.6927l-0.01693-0.11854-0.05081-0.30483c-0.12137-0.21733-0.28507-0.36409-0.49111-0.4403-0.37539 0.03105-0.65199 0.2004-0.82981 0.50804-0.03387 0.12419-0.05081 0.23145-0.0508 0.32176v2.7265h-1.2701v-4.6232h1.2701v0.30483c0.29071-0.23144 0.60118-0.37256 0.93141-0.42337z"/>
 </g>
</svg>
