<?xml version="1.0" encoding="UTF-8" standalone="no"?>
<!-- Generator: Adobe Illustrator 16.0.2, SVG Export Plug-In . SVG Version: 6.00 Build 0)  -->

<svg
   version="1.1"
   id="Layer_1"
   sodipodi:docname="maxlength_empty.svg"
   inkscape:version="1.2 (dc2aedaf03, 2022-05-15)"
   inkscape:output_extension="org.inkscape.output.svg.inkscape"
   sodipodi:version="0.32"
   x="0px"
   y="0px"
   width="576"
   height="620"
   viewBox="0 0 576 620"
   enable-background="new 0 0 576 576"
   xml:space="preserve"
   xmlns:inkscape="http://www.inkscape.org/namespaces/inkscape"
   xmlns:sodipodi="http://sodipodi.sourceforge.net/DTD/sodipodi-0.dtd"
   xmlns="http://www.w3.org/2000/svg"
   xmlns:svg="http://www.w3.org/2000/svg">
<defs
   id="defs1485">
	<inkscape:perspective
   id="perspective2469"
   inkscape:persp3d-origin="288 : 236 : 1"
   sodipodi:type="inkscape:persp3d"
   inkscape:vp_x="0 : 332 : 1"
   inkscape:vp_y="0 : 1000 : 0"
   inkscape:vp_z="576 : 332 : 1" />
</defs>
<sodipodi:namedview
   id="base"
   inkscape:current-layer="Layer_1"
   inkscape:window-y="-8"
   inkscape:window-x="-8"
   inkscape:window-height="1027"
   inkscape:window-width="1920"
   inkscape:pageshadow="2"
   inkscape:pageopacity="0.0"
   objecttolerance="10.0"
   inkscape:cy="377.00557"
   borderopacity="1.0"
   showgrid="false"
   inkscape:cx="54.685108"
   bordercolor="#666666"
   pagecolor="#ffffff"
   inkscape:zoom="1.5543537"
   guidetolerance="10.0"
   gridtolerance="10.0"
   inkscape:showpageshadow="2"
   inkscape:pagecheckerboard="0"
   inkscape:deskcolor="#d1d1d1"
   inkscape:window-maximized="1" />



<circle
   id="circle2450"
   fill="#ff0000"
   stroke="#ff0000"
   stroke-width="0.1764"
   stroke-linecap="round"
   stroke-linejoin="round"
   cx="287.05701"
   cy="274.18991"
   r="273.98199" /><circle
   id="circle2452"
   fill="#ffffff"
   stroke="#ff0000"
   stroke-width="0.1764"
   stroke-linecap="round"
   stroke-linejoin="round"
   cx="287.05701"
   cy="274.18991"
   r="192.438" /><path
   d="m 420.35452,137.18087 c 3.17043,0 3.17043,3.159 3.17043,3.159 v 102.55989 h -40.55409 c -2.66863,12.08869 -13.44581,21.13237 -26.32139,21.13237 -13.00102,0 -24.08611,-8.88403 -26.6407,-21.13237 H 191.41095 c -2.66863,12.08869 -13.43438,21.13237 -26.30998,21.13237 -13.38877,0 -24.48527,-9.75076 -26.59509,-22.52371 h -35.57034 c 0,0 -2.79409,0.5246 -2.79409,-2.8283 -0.285121,0.28512 0,-10.8798 0,-10.8798 0,0 0,-2.24667 2.23526,-2.24667 0,-0.2737 9.51127,0 9.51127,0 v -28.51104 c 0,0 0,-12.60186 15.38457,-12.60186 0.2737,0.2737 27.95221,0 27.95221,0 0,0 3.0906,1.40274 4.20824,-2.23527 -0.28513,-0.28512 11.46141,-39.00308 11.46141,-39.00308 0,0 0.55882,-1.39134 2.79409,-1.66506 0.55881,0 31.04281,0 31.04281,0 0,0 -0.26231,-4.07137 3.09059,-4.35647 h 212.53262"
   id="path3103"
   style="fill:#1c1d20;stroke-width:1" /><path
   d="m 181.21365,149.25843 c 0,0.28189 16.30405,0 16.30405,0 0,0 2.49183,0 2.49183,2.48056 v 24.05017 c 0,0 0.55249,2.48056 -2.49183,2.48056 -0.27061,0 -23.49767,0 -23.49767,0 0,0 -2.20996,0 -2.20996,-2.18741 0.27061,-0.29315 6.91175,-25.17769 6.91175,-25.17769 0,0 0,-1.64619 2.49183,-1.64619"
   id="path3105"
   style="fill:#ffffff;stroke-width:1" /><path
   d="m 200.95404,364.75444 c 0,4.02851 -3.53435,3.53435 -3.53435,3.53435 h -36.21365 c 0,0 0.50491,9.10981 0,9.10981 0,7.348 -8.09999,3.02944 -8.09999,3.02944 L 108.78166,354.1299 c -2.77162,-1.78328 -2.5138,-3.10464 -2.5138,-3.10464 0,0 -0.24708,-1.27838 2.5138,-3.02944 l 44.32439,-26.3411 c 0,0 8.09999,-4.29708 8.09999,3.06167 0.50491,0 0,9.09906 0,9.09906 h 36.21365 c 0,0 3.53435,-0.5049 3.53435,3.53435 0.25782,-0.0107 0.25782,27.40464 0,27.40464"
   id="path3115"
   style="fill:#1c1d20;stroke-width:1" /><path
   d="m 374.26623,365.39779 c 0,4.02851 3.54509,3.53435 3.54509,3.53435 h 36.20291 c 0,0 -0.51565,9.10981 0,9.10981 0,7.348 8.11074,3.02944 8.11074,3.02944 l 44.31365,-26.29814 c 2.78236,-1.78328 2.51379,-3.10464 2.51379,-3.10464 0,0 0.25782,-1.27838 -2.51379,-3.02944 l -44.31365,-26.3411 c 0,0 -8.11074,-4.29708 -8.11074,3.06167 -0.51565,0 0,9.09906 0,9.09906 h -36.20291 c 0,0 -3.54509,-0.5049 -3.54509,3.53435 -0.24708,-0.0107 -0.24708,27.40464 0,27.40464"
   id="path3117"
   style="fill:#1c1d20;stroke-width:1" /><path
   d="m 348.32032,377.99162 c 1.59896,0 3.56212,1.03932 5.88949,3.11796 1.63449,-2.06976 3.93521,-3.11796 6.91993,-3.11796 5.77401,0.92384 8.6699,3.81085 8.6699,8.6699 v 15.92738 h -6.92881 v -12.46298 c 0,-3.4644 -1.1548,-5.19661 -3.46441,-5.19661 -2.07864,0.29315 -3.12684,1.33247 -3.12684,3.11797 v 14.5505 h -7.26637 v -14.5505 c 0,-2.06976 -1.27917,-3.11797 -3.81973,-3.11797 -1.03933,0.37309 -1.84769,1.06597 -2.41621,2.06976 v 15.58983 h -7.27525 v -23.89552 h 5.88949 c 0.46192,0 0.69288,0.46192 0.69288,1.37688 h 0.34644 c 1.93652,-1.37688 3.89968,-2.07864 5.88949,-2.07864 z"
   id="path3113"
   style="fill:#1c1d20;stroke-width:0.999996" /></svg>
