<?xml version="1.0" encoding="UTF-8" standalone="no"?>
<svg
   width="20px"
   height="20px"
   viewBox="0 0 20 20"
   version="1.1"
   id="svg1633"
   sodipodi:docname="rent.svg"
   inkscape:version="1.2.1 (9c6d41e410, 2022-07-14)"
   xmlns:inkscape="http://www.inkscape.org/namespaces/inkscape"
   xmlns:sodipodi="http://sodipodi.sourceforge.net/DTD/sodipodi-0.dtd"
   xmlns="http://www.w3.org/2000/svg"
   xmlns:svg="http://www.w3.org/2000/svg">
  <defs
     id="defs1637" />
  <sodipodi:namedview
     id="namedview1635"
     pagecolor="#ffffff"
     bordercolor="#666666"
     borderopacity="1.0"
     inkscape:showpageshadow="2"
     inkscape:pageopacity="0.0"
     inkscape:pagecheckerboard="0"
     inkscape:deskcolor="#d1d1d1"
     showgrid="false"
     inkscape:zoom="8"
     inkscape:cx="10.0625"
     inkscape:cy="11.625"
     inkscape:window-width="1920"
     inkscape:window-height="1027"
     inkscape:window-x="-8"
     inkscape:window-y="-8"
     inkscape:window-maximized="1"
     inkscape:current-layer="svg1633" />
  <path
     d="M 16,2 H 4 C 2.9,2 1.9983318,1.9042386 2,3.0042373 L 2.0211864,16.974576 C 2.0228546,18.074575 2.9,18 4,18 h 12 c 1.1,0 1.933079,0.09576 1.936441,-1.004237 L 17.978814,3.1313559 C 17.982175,2.0313611 17.1,2 16,2 Z M 13.061,14.789 10,11.729 6.939,14.789 5.21,13.061 8.271,10 5.211,6.939 6.94,5.21 10,8.271 13.059,5.21 14.788,6.939 11.729,10 l 3.06,3.061 z"
     id="path1631"
     style="fill:#ff0000"
     sodipodi:nodetypes="sssssssssccccccccccccc" />
  <rect
     style="fill:#0000ff;stroke-width:56.7058;stroke-linecap:round"
     id="rect1639"
     width="2.9472864"
     height="11.287482"
     x="-1.5660781"
     y="8.4411411"
     transform="matrix(0.71981912,-0.69416168,0.71545715,0.69865662,0,0)" />
  <rect
     style="fill:#0000ff;stroke-width:56.7058;stroke-linecap:round"
     id="rect1639-3"
     width="2.9472864"
     height="11.287482"
     x="12.82467"
     y="-6.0172348"
     transform="matrix(0.68991404,0.7238913,-0.70285448,0.71133366,0,0)" />
</svg>
