<?xml version="1.0" encoding="UTF-8" standalone="no"?>
<svg
   width="20px"
   height="20px"
   viewBox="0 0 20 20"
   version="1.1"
   id="svg1633"
   sodipodi:docname="restaurant.svg"
   inkscape:version="1.2.1 (9c6d41e410, 2022-07-14)"
   xmlns:inkscape="http://www.inkscape.org/namespaces/inkscape"
   xmlns:sodipodi="http://sodipodi.sourceforge.net/DTD/sodipodi-0.dtd"
   xmlns="http://www.w3.org/2000/svg"
   xmlns:svg="http://www.w3.org/2000/svg">
  <defs
     id="defs1637" />
  <sodipodi:namedview
     id="namedview1635"
     pagecolor="#ffffff"
     bordercolor="#666666"
     borderopacity="1.0"
     inkscape:showpageshadow="2"
     inkscape:pageopacity="0.0"
     inkscape:pagecheckerboard="0"
     inkscape:deskcolor="#d1d1d1"
     showgrid="false"
     inkscape:zoom="4"
     inkscape:cx="-114.125"
     inkscape:cy="79.75"
     inkscape:window-width="1920"
     inkscape:window-height="1017"
     inkscape:window-x="-8"
     inkscape:window-y="-8"
     inkscape:window-maximized="1"
     inkscape:current-layer="svg1633" />
  <g
     id="XMLID_128_"
     transform="matrix(0.0346295,0,0,0.0346295,1.4855002,1.0352375)">
	<path
   id="XMLID_137_"
   d="m 56.239,145.562 c -2.128,-8.271 -3.374,-16.85 -3.374,-25.655 V 91.303 C 19.885,132.704 0,185.015 0,241.955 0,318.482 35.757,386.721 91.357,431.144 v -43.969 c -36.328,-37.72 -58.779,-88.852 -58.779,-145.22 0,-34.761 8.631,-67.5 23.661,-96.393 z" />

	<path
   id="XMLID_136_"
   d="M 393.649,53.117 V 97.26 c 36.027,37.671 58.311,88.581 58.311,144.694 0,56.113 -22.284,107.024 -58.311,144.694 v 44.146 c 55.315,-44.44 90.88,-112.529 90.88,-188.84 0,-76.31 -35.565,-144.399 -90.88,-188.837 z" />

	<path
   id="XMLID_135_"
   d="m 265.612,450.261 c -7.664,0.859 -15.445,1.383 -23.343,1.383 -7.318,0 -14.526,-0.389 -21.635,-1.12 v 20.032 c 0,4.351 -0.808,8.477 -1.96,12.47 7.764,0.747 15.637,1.193 23.595,1.193 8.302,0 16.503,-0.429 24.586,-1.25 -1.303,-4.572 -2.119,-9.311 -1.943,-14.137 z" />

	<path
   id="XMLID_134_"
   d="m 259.091,28.001 c 5.999,-9.097 12.98,-17.495 20.871,-25.074 -7.495,-1.176 -15.1,-2.013 -22.814,-2.481 1.154,3.954 1.943,8.041 1.943,12.359 z" />

	<path
   id="XMLID_133_"
   d="m 393.649,171.527 v 140.855 c 9.986,-21.425 15.732,-45.233 15.732,-70.428 -10e-4,-25.192 -5.746,-49.002 -15.732,-70.427 z" />

	<path
   id="XMLID_132_"
   d="m 75.148,241.955 c 0,25.592 5.922,49.735 16.209,71.413 v -113.45 c -3.053,-2.433 -5.931,-5.034 -8.649,-7.77 -4.901,15.73 -7.56,32.462 -7.56,49.807 z" />

	<path
   id="XMLID_131_"
   d="m 234.85,194.875 v -9.003 c -4.255,5.066 -8.967,9.823 -14.215,14.037 v 207.6 c 7.09,0.921 14.282,1.558 21.635,1.558 8.52,0 16.805,-0.843 24.981,-2.067 L 272.929,257.017 257.856,244.3 C 243.254,231.992 234.85,213.978 234.85,194.875 Z" />

	<path
   id="XMLID_130_"
   d="m 348.036,0.311 c -1.432,0 -2.895,0.24 -4.3,0.724 -45.673,15.898 -76.308,58.969 -76.308,107.335 v 86.506 c 0,9.457 4.18,18.428 11.422,24.518 l 27.229,22.967 -8.624,227.704 c -0.125,3.546 1.196,6.99 3.66,9.542 2.448,2.553 5.854,4 9.38,4 h 37.54 c 7.198,0 13.037,-5.846 13.037,-13.051 V 13.361 c 0,-4.222 -2.036,-8.184 -5.468,-10.632 -2.261,-1.591 -4.903,-2.418 -7.568,-2.418 z" />

	<path
   id="XMLID_129_"
   d="m 226.523,12.805 c 0,-6.902 -5.603,-12.494 -12.507,-12.494 -6.882,0 -12.468,5.591 -12.468,12.485 v 95.199 c 0,8.994 -7.3,16.287 -16.285,16.287 -9,0 -16.285,-7.293 -16.285,-16.287 V 13.291 c 0,-7.167 -5.83,-12.979 -12.98,-12.979 -7.173,0 -12.976,5.813 -12.976,12.979 v 94.705 c 0,8.994 -7.301,16.287 -16.295,16.287 -8.998,0 -16.282,-7.293 -16.282,-16.287 v -95.19 c 0,-6.902 -5.596,-12.494 -12.502,-12.494 -6.906,0 -12.499,5.591 -12.499,12.494 v 107.103 c 0,27.348 15.729,50.793 38.491,62.5 v 288.148 c 0,7.205 5.838,13.051 13.038,13.051 h 38.028 c 7.209,0 13.064,-5.846 13.064,-13.051 V 182.399 c 22.735,-11.707 38.458,-35.15 38.458,-62.491 z" />

</g>
  <g
     id="g208"
     transform="matrix(0.0346295,0,0,0.0346295,1.4855002,1.0352375)">
</g>
  <g
     id="g210"
     transform="matrix(0.0346295,0,0,0.0346295,1.4855002,1.0352375)">
</g>
  <g
     id="g212"
     transform="matrix(0.0346295,0,0,0.0346295,1.4855002,1.0352375)">
</g>
  <g
     id="g214"
     transform="matrix(0.0346295,0,0,0.0346295,1.4855002,1.0352375)">
</g>
  <g
     id="g216"
     transform="matrix(0.0346295,0,0,0.0346295,1.4855002,1.0352375)">
</g>
  <g
     id="g218"
     transform="matrix(0.0346295,0,0,0.0346295,1.4855002,1.0352375)">
</g>
  <g
     id="g220"
     transform="matrix(0.0346295,0,0,0.0346295,1.4855002,1.0352375)">
</g>
  <g
     id="g222"
     transform="matrix(0.0346295,0,0,0.0346295,1.4855002,1.0352375)">
</g>
  <g
     id="g224"
     transform="matrix(0.0346295,0,0,0.0346295,1.4855002,1.0352375)">
</g>
  <g
     id="g226"
     transform="matrix(0.0346295,0,0,0.0346295,1.4855002,1.0352375)">
</g>
  <g
     id="g228"
     transform="matrix(0.0346295,0,0,0.0346295,1.4855002,1.0352375)">
</g>
  <g
     id="g230"
     transform="matrix(0.0346295,0,0,0.0346295,1.4855002,1.0352375)">
</g>
  <g
     id="g232"
     transform="matrix(0.0346295,0,0,0.0346295,1.4855002,1.0352375)">
</g>
  <g
     id="g234"
     transform="matrix(0.0346295,0,0,0.0346295,1.4855002,1.0352375)">
</g>
  <g
     id="g236"
     transform="matrix(0.0346295,0,0,0.0346295,1.4855002,1.0352375)">
</g>
</svg>
