<?xml version="1.0" encoding="UTF-8" standalone="no"?>
<!-- Generator: Adobe Illustrator 19.0.0, SVG Export Plug-In . SVG Version: 6.00 Build 0)  -->

<svg
   version="1.1"
   id="Layer_1"
   x="0px"
   y="0px"
   viewBox="0 0 512 512"
   style="enable-background:new 0 0 512 512;"
   xml:space="preserve"
   sodipodi:docname="suction_point.svg"
   inkscape:version="1.2.1 (9c6d41e410, 2022-07-14)"
   xmlns:inkscape="http://www.inkscape.org/namespaces/inkscape"
   xmlns:sodipodi="http://sodipodi.sourceforge.net/DTD/sodipodi-0.dtd"
   xmlns="http://www.w3.org/2000/svg"
   xmlns:svg="http://www.w3.org/2000/svg"><defs
   id="defs93" /><sodipodi:namedview
   id="namedview91"
   pagecolor="#ffffff"
   bordercolor="#666666"
   borderopacity="1.0"
   inkscape:showpageshadow="2"
   inkscape:pageopacity="0.0"
   inkscape:pagecheckerboard="0"
   inkscape:deskcolor="#d1d1d1"
   showgrid="false"
   inkscape:zoom="1.5273438"
   inkscape:cx="143.38618"
   inkscape:cy="350.28132"
   inkscape:window-width="1920"
   inkscape:window-height="1027"
   inkscape:window-x="-8"
   inkscape:window-y="-8"
   inkscape:window-maximized="1"
   inkscape:current-layer="Layer_1" />
<path
   style="fill:#3d9ec9;stroke-width:0.999997"
   d="m 356.62289,433.74147 c -54.92218,0 -54.92218,-74.99644 -109.84436,-74.99644 -54.92219,0 -54.92219,74.99644 -109.84436,74.99644 -54.915465,0 -54.915465,-74.99644 -109.829818,-74.99644 -54.912128,0 -54.912128,74.99644 -109.824236,74.99644 -54.893116,0 -54.893116,-74.99644 -109.787346,-74.99644 V 200.24701 c 54.89311,0 54.89311,74.99645 109.787346,74.99645 54.912108,0 54.912108,-74.99645 109.824236,-74.99645 54.915466,0 54.915466,74.99645 109.829818,74.99645 54.92217,0 54.92217,-74.99645 109.84436,-74.99645 54.92218,0 54.92218,74.99645 109.84436,74.99645"
   id="path52" />
<path
   style="fill:#47a7dd;stroke-width:0.999997"
   d="m 356.62289,592.24175 c -54.92218,0 -54.92218,-74.99645 -109.84436,-74.99645 -54.92219,0 -54.92219,74.99645 -109.84436,74.99645 -54.915465,0 -54.915465,-74.99645 -109.829818,-74.99645 -54.912128,0 -54.912128,74.99645 -109.824236,74.99645 -54.893116,0 -54.893116,-74.99645 -109.787346,-74.99645 V 358.74728 c 54.89311,0 54.89311,74.99645 109.787346,74.99645 54.912108,0 54.912108,-74.99645 109.824236,-74.99645 54.915466,0 54.915466,74.99645 109.829818,74.99645 54.92217,0 54.92217,-74.99645 109.84436,-74.99645 54.92218,0 54.92218,74.99645 109.84436,74.99645"
   id="path54" />

<path
   style="fill:#3494bf;stroke-width:0.999997"
   d="m 356.62289,455.43674 c -30.768,0 -46.81115,-21.90699 -60.96463,-41.23498 -13.26792,-18.11618 -24.72556,-33.76146 -48.87973,-33.76146 -24.15417,0 -35.61293,15.64528 -48.87972,33.76146 -14.15349,19.32799 -30.19664,41.23498 -60.96464,41.23498 -30.76354,0 -46.805571,-21.90699 -60.959042,-41.23498 C 62.71056,396.08558 51.254056,380.4403 27.102111,380.4403 c -24.1497041,0 -35.6051108,15.64528 -48.869664,33.76146 -14.152358,19.32799 -30.192162,41.23498 -60.955692,41.23498 -30.753465,0 -46.789915,-21.90699 -60.936685,-41.23723 -13.25896,-18.11393 -24.70877,-33.75921 -48.84842,-33.75921 v -43.38604 c 30.75347,0 46.78991,21.907 60.93893,41.23723 13.25896,18.11168 24.70877,33.75697 48.848421,33.75697 24.149695,0 35.605097,-15.64529 48.869646,-33.76147 14.152374,-19.32798 30.1921688,-41.23498 60.955705,-41.23498 30.763521,0 46.805556,21.907 60.959043,41.23498 13.264555,18.11618 24.719945,33.76147 48.871885,33.76147 24.15417,0 35.61293,-15.64529 48.87974,-33.76147 14.15347,-19.32798 30.19662,-41.23498 60.96463,-41.23498 30.768,0 46.81116,21.907 60.96463,41.23498 13.26792,18.11618 24.72556,33.76147 48.87973,33.76147 v 43.38603 h -10e-4 z"
   id="path58" />
<g
   id="g60">
</g>
<g
   id="g62">
</g>
<g
   id="g64">
</g>
<g
   id="g66">
</g>
<g
   id="g68">
</g>
<g
   id="g70">
</g>
<g
   id="g72">
</g>
<g
   id="g74">
</g>
<g
   id="g76">
</g>
<g
   id="g78">
</g>
<g
   id="g80">
</g>
<g
   id="g82">
</g>
<g
   id="g84">
</g>
<g
   id="g86">
</g>
<g
   id="g88">
</g>
<path
   style="fill:#d63232;stroke-width:1"
   d="m 518.48511,416.70378 c 0.0882,-37.49749 6.22245,-74.50952 -7.52887,-74.67105 l -0.34626,147.14397 c 13.75132,0.16153 7.78689,-34.97644 7.87513,-72.47292 z"
   id="path3593"
   sodipodi:nodetypes="sccs" /><path
   style="fill:#ea4949;stroke-width:1"
   d="m 516.06014,414.05637 c 0.0882,-37.49748 7.36108,-71.87722 -5.29099,-72.02584 l -121.20663,-1.42375 -0.34625,147.14397 121.20663,1.42375 c 12.65206,0.14862 5.549,-37.62165 5.63724,-75.11813 z"
   id="path3595"
   sodipodi:nodetypes="ssccss" /><g
   id="g3605"
   transform="matrix(-0.00235314,0.99998618,-0.44757566,-0.00525745,569.93483,168.21512)"
   style="stroke-width:1.49474">
	<path
   style="fill:#e68484;stroke-width:1.49474"
   d="m 196.695,155.081 c -3.313,0 -6,2.687 -6,6 v 206 c 0,3.313 2.687,6 6,6 3.313,0 6,-2.687 6,-6 v -206 c 0,-3.313 -2.686,-6 -6,-6 z"
   id="path3597" />
	<path
   style="fill:#e68484;stroke-width:1.49474"
   d="m 299.695,155.081 c -3.313,0 -6,2.687 -6,6 v 206 c 0,3.313 2.687,6 6,6 3.313,0 6,-2.687 6,-6 v -206 c 0,-3.313 -2.686,-6 -6,-6 z"
   id="path3599" />
	<path
   style="fill:#e68484;stroke-width:1.49474"
   d="m 228.695,155.081 c -3.313,0 -6,2.687 -6,6 v 206 c 0,3.313 2.687,6 6,6 3.313,0 6,-2.687 6,-6 v -206 c 0,-3.313 -2.686,-6 -6,-6 z"
   id="path3601" />
	<path
   style="fill:#e68484;stroke-width:1.49474"
   d="m 266.362,155.081 c -3.313,0 -6,2.687 -6,6 v 206 c 0,3.313 2.687,6 6,6 3.313,0 6,-2.687 6,-6 v -206 c 0,-3.313 -2.687,-6 -6,-6 z"
   id="path3603" />
</g><ellipse
   style="fill:#d63232;stroke-width:1.00002"
   cx="408.70459"
   cy="-460.26947"
   id="circle3617"
   transform="matrix(-0.00235316,0.99999723,-0.99993102,-0.01174569,0,0)"
   rx="55.862385"
   ry="25.004644" /><ellipse
   style="fill:#ea4949;stroke-width:1.00002"
   cx="408.70459"
   cy="-460.26947"
   id="circle3619"
   transform="matrix(-0.00235316,0.99999723,-0.99993102,-0.01174569,0,0)"
   rx="34.862614"
   ry="15.604906" /><path
   style="fill:#d63232;stroke-width:1"
   d="m 511.40198,490.22702 0.35768,-151.9979 c 0.007,-2.76096 -0.99036,-5.01171 -2.22611,-5.02622 -1.23577,-0.0145 -2.24315,2.21268 -2.24965,4.97364 l -0.35768,151.9979 c -0.007,2.76096 0.99035,5.0117 2.22611,5.02622 1.23576,0.0145 2.24315,-2.21268 2.24965,-4.97364 z"
   id="path3621" /><path
   style="fill:#ea4949;stroke-width:1"
   d="m 390.03319,330.79917 -36.1198,-0.42428 c -4.22378,26.01175 -6.56351,54.04965 -6.63235,83.30525 -0.0655,27.84961 1.92583,54.65037 5.65485,79.68552 l 36.71374,0.43126 z"
   id="path3623" /><g
   id="g3633"
   transform="matrix(-0.00163499,1.0566886,-0.31098126,-0.00555556,511.42978,158.82524)"
   style="stroke-width:1.74443">
	<path
   style="fill:#e68484;stroke-width:1.74443"
   d="m 185.04,426.385 c -4.063,0 -7.357,3.294 -7.357,7.358 v 52.27 c 4.847,1.432 9.75,2.733 14.715,3.872 v -56.141 c 0,-4.064 -3.294,-7.359 -7.358,-7.359 z"
   id="path3625" />
	<path
   style="fill:#e68484;stroke-width:1.74443"
   d="m 311.35,426.385 c -4.063,0 -7.358,3.294 -7.358,7.358 v 56.09 c 4.966,-1.144 9.868,-2.453 14.715,-3.89 v -52.2 c 0,-4.063 -3.294,-7.358 -7.357,-7.358 z"
   id="path3627" />
	<path
   style="fill:#e68484;stroke-width:1.74443"
   d="m 224.282,426.385 c -4.063,0 -7.357,3.294 -7.357,7.358 v 60.477 c 4.861,0.609 9.771,1.063 14.715,1.387 v -61.863 c 0,-4.064 -3.294,-7.359 -7.358,-7.359 z"
   id="path3629" />
	<path
   style="fill:#e68484;stroke-width:1.74443"
   d="m 270.473,426.385 c -4.063,0 -7.358,3.294 -7.358,7.358 v 61.952 c 4.945,-0.296 9.852,-0.734 14.715,-1.316 v -60.636 c 0.001,-4.063 -3.294,-7.358 -7.357,-7.358 z"
   id="path3631" />
</g><path
   style="fill:#d63232;stroke-width:1"
   d="m 391.68068,497.26583 0.39742,-168.88667 c 0.007,-3.06796 -1.1005,-5.569 -2.47366,-5.58513 -1.37317,-0.0161 -2.49258,2.45775 -2.4998,5.52671 l -0.39742,168.88666 c -0.007,3.06796 1.10049,5.56901 2.47366,5.58514 1.37316,0.0161 2.49258,-2.45876 2.4998,-5.52671 z"
   id="path3635" /></svg>
