<?xml version="1.0" encoding="UTF-8" standalone="no"?>
<!-- Generator: Adobe Illustrator 19.0.0, SVG Export Plug-In . SVG Version: 6.00 Build 0)  -->

<svg
   version="1.1"
   id="Layer_1"
   x="0px"
   y="0px"
   viewBox="0 0 512 512"
   style="enable-background:new 0 0 512 512;"
   xml:space="preserve"
   sodipodi:docname="water_pond.svg"
   inkscape:version="1.2.1 (9c6d41e410, 2022-07-14)"
   xmlns:inkscape="http://www.inkscape.org/namespaces/inkscape"
   xmlns:sodipodi="http://sodipodi.sourceforge.net/DTD/sodipodi-0.dtd"
   xmlns="http://www.w3.org/2000/svg"
   xmlns:svg="http://www.w3.org/2000/svg"><defs
   id="defs93" /><sodipodi:namedview
   id="namedview91"
   pagecolor="#ffffff"
   bordercolor="#666666"
   borderopacity="1.0"
   inkscape:showpageshadow="2"
   inkscape:pageopacity="0.0"
   inkscape:pagecheckerboard="0"
   inkscape:deskcolor="#d1d1d1"
   showgrid="false"
   inkscape:zoom="1.5273438"
   inkscape:cx="263.5294"
   inkscape:cy="291.35549"
   inkscape:window-width="1920"
   inkscape:window-height="1027"
   inkscape:window-x="-8"
   inkscape:window-y="-8"
   inkscape:window-maximized="1"
   inkscape:current-layer="Layer_1" />
<path
   style="fill:#3d9ec9;stroke-width:1"
   d="m 511.40565,476.93715 c -51.149,0 -51.149,-33.296 -102.298,-33.296 -51.149,0 -51.149,33.296 -102.298,33.296 -51.14275,0 -51.14275,-33.296 -102.28446,-33.296 -51.13963,0 -51.13963,33.296 -102.27925,33.296 -51.121931,0 -51.121931,-33.296 -102.24489835,-33.296 v -70.368 c 51.12192635,0 51.12192635,33.296 102.24489835,33.296 51.13962,0 51.13962,-33.296 102.27925,-33.296 51.14275,0 51.14275,33.296 102.28446,33.296 51.149,0 51.149,-33.296 102.298,-33.296 51.149,0 51.149,33.296 102.298,33.296"
   id="path52" />
<path
   style="fill:#47a7dd;stroke-width:1"
   d="m 511.40565,547.30615 c -51.149,0 -51.149,-33.296 -102.298,-33.296 -51.149,0 -51.149,33.296 -102.298,33.296 -51.14275,0 -51.14275,-33.296 -102.28446,-33.296 -51.13963,0 -51.13963,33.296 -102.27925,33.296 -51.121931,0 -51.121931,-33.296 -102.24489835,-33.296 v -70.368 c 51.12192635,0 51.12192635,33.296 102.24489835,33.296 51.13962,0 51.13962,-33.296 102.27925,-33.296 51.14275,0 51.14275,33.296 102.28446,33.296 51.149,0 51.149,-33.296 102.298,-33.296 51.149,0 51.149,33.296 102.298,33.296"
   id="path54" />

<path
   style="fill:#3494bf;stroke-width:1"
   d="m 511.40565,486.56915 c -28.65423,0 -43.5952,-9.726 -56.77634,-18.307 -12.3564,-8.043 -23.02689,-14.989 -45.52166,-14.989 -22.49477,0 -33.1663,6.946 -45.52166,14.989 -13.18113,8.581 -28.12211,18.307 -56.77634,18.307 -28.65006,0 -43.59,-9.726 -56.77113,-18.307 -12.35328,-8.043 -23.02272,-14.989 -45.51541,-14.989 -22.49061,0 -33.15902,6.946 -45.51229,14.989 -13.18009,8.581 -28.11795,18.307 -56.76801,18.307 -28.64069,0 -43.57542,-9.726 -56.750304,-18.308 -12.34807,-8.042 -23.01127,-14.988 -45.4925056678005,-14.988 v -19.262 C 28.640692,434.01115 43.575421,443.73715 56.752388,452.31915 c 12.34807,8.041 23.01127,14.987 45.492512,14.987 22.4906,0 33.15901,-6.946 45.51228,-14.989 13.18009,-8.581 28.11795,-18.307 56.76801,-18.307 28.65006,0 43.59,9.726 56.77113,18.307 12.35328,8.043 23.02168,14.989 45.51437,14.989 22.49477,0 33.16631,-6.946 45.52167,-14.989 13.18113,-8.581 28.1221,-18.307 56.77633,-18.307 28.65423,0 43.59521,9.726 56.77634,18.307 12.3564,8.043 23.02689,14.989 45.52166,14.989 v 19.262 h -0.001 z"
   id="path58" />
<g
   id="g60">
</g>
<g
   id="g62">
</g>
<g
   id="g64">
</g>
<g
   id="g66">
</g>
<g
   id="g68">
</g>
<g
   id="g70">
</g>
<g
   id="g72">
</g>
<g
   id="g74">
</g>
<g
   id="g76">
</g>
<g
   id="g78">
</g>
<g
   id="g80">
</g>
<g
   id="g82">
</g>
<g
   id="g84">
</g>
<g
   id="g86">
</g>
<g
   id="g88">
</g>
<rect
   style="display:inline;fill:none;stroke:#000000;stroke-width:3.77953;stroke-linecap:round;stroke-linejoin:round;image-rendering:auto"
   id="rect305"
   width="509.38107"
   height="147.96931"
   x="1.3094629"
   y="363.37595"
   inkscape:label="rect305" /><rect
   style="fill:#ffffff;stroke:none;stroke-width:3.77953;stroke-linecap:round;stroke-linejoin:round"
   id="rect359"
   width="555.21228"
   height="117.19693"
   x="-18.987213"
   y="253.38107" /><rect
   style="fill:none;stroke:#000000;stroke-width:6;stroke-linecap:round;stroke-linejoin:round;stroke-dasharray:none"
   id="rect3981"
   width="506.10739"
   height="447.18155"
   x="3.2736561"
   y="62.199444" /></svg>
